<?xml version="1.0" encoding="UTF-8"?>
<svg id="Layer_1" data-name="Layer 1" xmlns="http://www.w3.org/2000/svg" viewBox="0 0 384 384">
  <defs>
    <style>
      .cls-1 {
        fill: #A6E5DC;
      }

      .cls-2 {
        fill: #A0E3D9;
      }

      .cls-3 {
        fill: #2BBBAE;
      }

      .cls-4 {
        fill: #009688;
      }

      .cls-5 {
        fill: #8FDED3;
      }

      .cls-6 {
        fill: #33BEB0;
      }

      .cls-7 {
        fill: #79D8CB;
      }

      .cls-8 {
        fill: #63D2C4;
      }

      .cls-9 {
        fill: #00A896;
      }

      .cls-10 {
        fill: #04AC9A;
      }

      .cls-11 {
        fill: #fefefe;
      }
    </style>
  </defs>
  <path class="cls-4" d="M.07,182.25v-6c.85-5.27,.87-10.6,1.27-15.91,.92-12.15,4.52-23.62,8.67-34.92,8.35-22.73,20.42-43.33,36.57-61.39,24.97-27.91,55.33-47.45,91.29-58.24,11.61-3.48,23.47-4.84,35.49-5.36,.73-.03,1.51,.2,2.14-.37h3c.5,.46,1,.46,1.5,0h4.5c1.75,.6,3.5,.6,5.25,0h12.75c.42,.45,.97,.35,1.5,.37,.53-.02,1.08,.08,1.5-.37h2.25c4.13,.9,8.38,.89,12.55,1.06,15.6,.62,30.13,5.47,44.34,11.23,17.66,7.16,34.14,16.56,48.85,28.77,20.57,17.08,37.65,37.05,50.05,60.89,7.94,15.26,13.94,31.19,17.67,47.99,1.76,7.95,1.71,16.06,2.36,24.11,.08,.97-.32,2,.37,2.89v2.25c-.46,.5-.46,1,0,1.5v4.5c-.59,1.5-.59,3,0,4.5v4.5c-.59,1.5-.59,3,0,4.5v3.75c-.45,.42-.35,.97-.37,1.5,.02,.53-.08,1.08,.37,1.5v3c-.88,4.89-.7,9.87-1.19,14.8-1.69,17.01-7.21,32.93-14.14,48.39-11.19,24.96-27.26,46.46-47.55,64.69-22.15,19.9-47.67,33.88-76.34,42.18-11.67,3.37-23.54,4.59-35.57,5-.5,.02-.99,0-1.39,.38h-6.75c-1.25-.59-2.5-.59-3.75,0h-10.5c-1.5-.59-3-.59-4.5,0h-6.75c-4.89-.88-9.88-.68-14.8-1.19-17.38-1.79-33.65-7.46-49.42-14.64-17.14-7.81-32.9-17.9-46.93-30.46-17.23-15.42-31.87-33.01-42.78-53.53-8.54-16.07-15.12-32.85-18.91-50.7-1.6-7.52-1.5-15.18-2.21-22.78-.07-.72,.2-1.5-.38-2.14v-3c.46-.5,.46-1,0-1.5v-2.25c.59-1.5,.59-3,0-4.5v-10.5c.59-1.5,.59-3,0-4.5Z"/>
  <path class="cls-11" d="M207.74,383.93c4.04-1.75,8.44-1.44,12.66-2.1,48.85-7.71,88.97-30.78,120.36-68.83,22.86-27.7,36.43-59.64,41.48-95.19,.44-3.12,.08-6.39,1.68-9.31,0,57.48-.02,114.96,.07,172.43,0,2.57-.5,3.08-3.07,3.07-57.73-.09-115.46-.07-173.18-.07Z"/>
  <path class="cls-11" d="M.07,208.49c1.89,3.75,1.47,7.93,2.08,11.9,6.57,42.25,25.05,78.43,55.46,108.37,30.23,29.76,66.59,47.4,108.58,53.47,3.12,.45,6.39,.09,9.31,1.68-57.48,0-114.96-.02-172.43,.07-2.57,0-3.08-.5-3.07-3.07,.09-57.48,.07-114.96,.07-172.43Z"/>
  <path class="cls-11" d="M383.93,177.01c-1.62-4.33-1.35-8.97-2.12-13.44-11.67-67.51-48.55-116.09-109.98-146.01C252.24,8.02,231.31,2.89,209.63,.85c-.69-.07-1.55,.18-1.89-.78C265.47,.07,323.2,.1,380.93,0c2.57,0,3.08,.5,3.07,3.07-.09,57.98-.07,115.96-.07,173.93Z"/>
  <path class="cls-11" d="M175.51,.07c-3.75,1.89-7.93,1.46-11.9,2.08-45.52,7.13-83.73,27.86-114.53,61.98C22.85,93.2,7.3,127.4,1.74,166.15c-.48,3.38-.09,6.91-1.67,10.1C.07,118.59,.1,60.92,0,3.26,0,.56,.55,0,3.26,0,60.67,.1,118.09,.07,175.51,.07Z"/>
  <path class="cls-10" d="M189.75,.07c-1.75,.97-3.5,1.05-5.25,0h5.25Z"/>
  <path class="cls-6" d="M.07,182.25c1.14,1.5,.81,3,0,4.5v-4.5Z"/>
  <path class="cls-9" d="M383.93,189.75c-.9-1.5-.98-3,0-4.5v4.5Z"/>
  <path class="cls-9" d="M383.93,198.75c-.98-1.5-.9-3,0-4.5v4.5Z"/>
  <path class="cls-6" d="M.07,197.25c.81,1.5,1.14,3,0,4.5v-4.5Z"/>
  <path class="cls-3" d="M182.25,383.93c1.5-1.13,3-.86,4.5,0h-4.5Z"/>
  <path class="cls-3" d="M197.25,383.93c1.25-.79,2.5-1.04,3.75,0h-3.75Z"/>
  <path class="cls-2" d="M180.01,.07c-.5,.79-1,.91-1.5,0h1.5Z"/>
  <path class="cls-8" d="M204.03,.72c-.63,.06-1.19-.04-1.54-.65h1.5c.56,.18,.57,.4,.04,.65Z"/>
  <path class="cls-2" d="M204.03,.72c-.02-.22-.04-.43-.04-.65h1.5c-.25,.74-.86,.7-1.46,.65Z"/>
  <path class="cls-5" d="M383.93,180.76c-.68-.5-.89-1,0-1.5v1.5Z"/>
  <path class="cls-7" d="M383.3,204.03c-.07-.63,.03-1.18,.63-1.53v1.5c-.18,.57-.39,.58-.63,.03Z"/>
  <path class="cls-2" d="M.07,204c.79,.5,.91,1,0,1.5v-1.5Z"/>
  <path class="cls-1" d="M383.3,204.03c.21,0,.42,0,.63-.03v1.5c-.76-.25-.7-.86-.63-1.47Z"/>
  <path class="cls-11" d="M304.43,137.49c.03,2.76-1.61,4.61-3.41,6.41-29.53,29.49-59.06,58.98-88.58,88.48-15.12,15.1-30.23,30.21-45.35,45.3-5.66,5.65-8.51,5.66-14.07,.07-23.19-23.28-46.38-46.57-69.57-69.85-5.3-5.32-5.32-8.3-.07-13.56,8.39-8.4,16.77-16.8,25.18-25.18,4.54-4.52,7.92-4.52,12.48,.02,12.12,12.09,24.29,24.13,36.24,36.38,2.39,2.45,3.53,2.16,5.77-.1,32.87-33.04,65.84-65.99,98.78-98.95,5.7-5.7,8.73-5.71,14.4-.04,8.31,8.3,16.61,16.62,24.92,24.91,1.72,1.71,3.18,3.53,3.26,6.1Z"/>
</svg>