<?xml version="1.0" encoding="UTF-8"?>
<svg id="Layer_1" data-name="Layer 1" xmlns="http://www.w3.org/2000/svg" viewBox="0 0 384 384">
  <defs>
    <style>
      .cls-1 {
        fill: #6f993d;
      }

      .cls-2 {
        fill: #feb955;
      }

      .cls-3 {
        fill: #e6a173;
      }

      .cls-4 {
        fill: #83b649;
      }

      .cls-5 {
        fill: #fea82c;
      }

      .cls-6 {
        fill: #f56824;
      }

      .cls-7 {
        fill: #374f68;
      }

      .cls-8 {
        fill: #678b38;
      }

      .cls-9 {
        fill: #9ccb6b;
      }

      .cls-10 {
        fill: #f7834b;
      }

      .cls-11 {
        fill: #1f2f42;
      }

      .cls-12 {
        fill: #f2bc97;
      }

      .cls-13 {
        fill: #425b72;
      }

      .cls-14 {
        fill: #fecb66;
      }

      .cls-15 {
        fill: #f5cbae;
      }

      .cls-16 {
        fill: #fefefe;
      }
    </style>
  </defs>
  <path class="cls-16" d="M383.93,191.99c0,62.96-.02,125.92,.06,188.87,0,2.45-.33,3.13-3.01,3.13-125.93-.09-251.85-.09-377.78,0C.4,384,0,383.29,0,380.69,.07,254.9,.07,129.11,0,3.32,0,.77,.34,0,3.2,0c125.93,.1,251.85,.09,377.78,0,2.65,0,3.03,.63,3.02,3.11-.08,62.96-.07,125.92-.07,188.87Z"/>
  <path class="cls-15" d="M283.57,201.69c1.07,1.32,.63,2.88,.63,4.33,.03,18.47,.11,36.95-.07,55.42-.03,3.03,.98,4.08,3.71,4.65,7.11,1.48,11.59,5.89,13.54,12.88-5.29,7.72-12.72,13.33-19.51,19.54-9.47,8.67-18.96,17.34-28.59,25.84-11.97,10.56-23.14,22.04-35.88,31.71-10.89,8.26-23.36,12.49-37,13.95-14.95,1.6-28.73-1.9-42.04-8.14-15.48-7.27-31.02-14.39-46.57-21.51-1.5-.68-2.94-1.4-3.75-2.96-.86-2.03-.7-4.17-.7-6.28-.02-24.06,0-48.12-.01-72.17,0-1.35-.23-2.76,.64-3.98,7.93,0,15.87,0,23.8,0,5.24-.54,11.8,2.93,13.58,9.04,2,6.86,6.1,7.5,12,7.24,8.97-.39,17.98,.13,26.96-.15,20.57-.63,34.24,20.08,25.4,38.78-3.31,5.68-8.32,8.36-14.85,8.36-6.73,0-13.46,0-20.2,0-1.25,0-2.5-.08-3.73,.15-2.7,.49-4.25,2.1-4.15,4.89,.09,2.78,1.92,3.9,4.47,4.02,3.61,.18,7.23,.06,10.84,.07,4.11,.02,8.24-.18,12.34,.04,12.83,.7,23.82-7.44,26.27-21.54,.09-.49,.2-.98,.36-1.45,.78-1.76,2.46-2.41,4.02-3.16,22.89-11.09,45.76-22.2,68.55-33.51,1.01-.5,2.05-.91,3.09-1.32q5.69-2.26,5.7-8.6c0-16.96-.02-33.91,.03-50.87,0-1.81-.49-3.79,1.12-5.28Z"/>
  <path class="cls-15" d="M296.83,125.23c-7.3,3.53-13.67,8.58-20.74,12.52-15.83,8.82-31,8.53-46.02-1.74-2.39-1.64-4.65-3.84-7.88-3.94-1.56-.11-2.81-.98-4.07-1.77-12.46-7.82-25.22-15.16-37.72-22.91-5.27-3.26-9.66-7.38-11.03-13.56-3.56-16.03,10.12-32.19,25.95-28.12,.6,.15,1.23,.17,1.84,.33,9.62,4.03,17.79,10.55,26.77,15.69,2.05,1.18,4,2.57,6.1,3.65,2.98,1.54,5.69,1.02,6.94-1.2,1.25-2.21,.55-5.08-2.05-6.82-8.19-5.48-16.72-10.45-25.11-15.62-4.44-2.74-8.62-5.89-13.77-7.45-5.47-1.66-10.31,.13-15.26,1.89-4.3-1.18-7.89-3.5-10.9-6.76-.31-1.42,.46-2.46,1.38-3.28,8.38-7.43,15.41-16.44,24.9-22.54,19.56-12.59,39.93-13.68,60.61-2.76,13.01,6.87,25.7,14.31,38.51,21.54,.97,.55,2.04,.96,2.72,1.92,.55,1.41-.2,2.59-.69,3.81-1.01,2.52-1.52,5.1-.89,7.82,.52,13.19,.04,26.37,.25,39.55,.15,9.32-.58,18.65,.52,27.96,.07,.63-.03,1.24-.36,1.79Z"/>
  <path class="cls-2" d="M283.57,201.69c-.03,19.83-.12,39.65-.03,59.48,.01,3.07-.49,4.87-3.98,5.31-2.02,.25-3.94,1.49-5.84,2.42-18.58,9.1-37.13,18.26-55.71,27.35-5.47,2.68-11.17,4.88-16.33,8.18-1.08,1.16-2.26,1.83-3.8,.8-1.22-1.47-1.09-3.26-1.09-4.99-.03-22.51-.03-45.02,0-67.53,0-1.37,0-2.74,.52-4.04,1.35-2.05,2.84-.81,4.18-.05,3.13,1.8,5.95,4.07,8.93,6.12,2.02,1.39,4.11,2.43,6.58,1.04,2.34-1.32,2.43-3.56,2.43-5.85,0-11.82-.03-23.65,.03-35.47,.01-2.76-.6-5.16-2.61-7.11-.27-.37-.32-.77-.15-1.2,16.85-.03,33.7-.2,50.55-.04,8.47,.08,15.42,7.01,16.33,15.59Z"/>
  <path class="cls-14" d="M198.04,227.91c-.02,24.72-.04,49.44-.04,74.16,0,1.08-.32,2.28,.73,3.14-1.69,3.02-6.04,5.04-9.77,4.54,2.28-6.06,3.21-12.21,1.57-18.61-2.72-10.62-13.13-18.86-24.07-18.9-11.97-.04-23.93-.05-35.9,.02-2.13,.01-3.54-.39-4.07-2.75-1.77-7.99-6.85-12.7-14.74-14.53,0-17.08,0-34.16,.02-51.24,.01-9.69,7.06-17.49,16.62-17.61,16.95-.22,33.91,0,50.86,.03-3.86,4.24-3.57,9.43-3.5,14.65,.12,8.96,.03,17.92,.03,26.88,0,1.12-.04,2.24,.05,3.36,.41,4.94,3.81,6.79,8.03,4.28,3.31-1.97,6.43-4.27,9.67-6.36,1.24-.8,2.4-1.81,3.99-1.92,.51,.09,.68,.38,.51,.87Z"/>
  <path class="cls-13" d="M87.96,254.97c.82,2.66,.82,5.4,.82,8.14,0,23.43,0,46.86,.01,70.29,0,1.6-.3,3.25,.48,4.78,1.71,2.71,1.25,5.68,.92,8.59-.1,.9-.33,2.04-1.75,1.89-1.36-1.58-1.13-3.52-1.08-5.35,.09-2.9-1.24-3.97-4.05-3.95-8.09,.04-16.19,.02-24.28,.01-7.35,0-14.69,.03-22.04-.02-1.83-.01-3.78,.28-5.32-1.16-.03-29.42-.09-58.84-.08-88.27,0-4.12,2.14-6.27,6.23-6.29,11.6-.06,23.2-.18,34.79,.08,7.51,.17,12.39,4.54,15.34,11.25Z"/>
  <path class="cls-9" d="M220.53,135.14c-1.34,2.99-3.3,5.59-5.16,8.25-.8-.05-1.44-.47-1.95-1.01-10.51-11.07-35.72-8.14-43.2,9.58-.44,1.04-.92,2.07-2.13,2.45-12.56-7.86-25.14-15.7-37.68-23.59-16.78-10.55-33.53-21.13-50.29-31.71-.73-.46-1.38-1.04-2.07-1.56-.1-1.53,.95-2.51,1.72-3.61,8.59-12.26,6.45-28.02-4.96-37.52-2.5-2.08-5.82-2.85-8.01-5.34l5.94-9.83c16.79,10.96,33.96,21.31,50.91,32.01,1.25,.79,2.68,1.37,3.48,2.74,.44,1.61-.59,2.86-1.04,4.26-4.97,15.32,2.88,28.12,17.35,30.29,6.62,.99,12.54-1.05,17.59-5.52,1.59-1.41,2.68-3.28,4.39-4.57,1.39-.48,2.38,.42,3.41,1.06,16.46,10.26,32.94,20.47,49.3,30.88,1,.63,2.78,.83,2.39,2.76Z"/>
  <path class="cls-13" d="M296.83,125.23c-.83-2.22-1.58-4.44-1.58-6.86,.04-21.18,.05-42.35,.08-63.53,1.14-1.24,2.68-1.21,4.16-1.22,16.77-.08,33.53,0,50.3-.05,.87,0,1.74,.04,2.53,.48,.03,24.69,.09,49.38,.08,74.06,0,4.29-2.1,6.56-6.41,6.61-11.22,.12-22.45,.15-33.67-.01-6.91-.1-12.06-3.49-15.49-9.49Z"/>
  <path class="cls-4" d="M126.77,75.8c-6.26-2.82-11.74-6.97-17.56-10.52-11.48-7-22.81-14.24-34.22-21.35-1.09-.68-2.22-1.19-2.24-2.7,1.79-2.97,3.57-5.95,5.36-8.92,1.14-.33,1.9,.39,2.66,1.01,13,10.46,34.33,5.14,41.29-9.4,.53-1.11,1.04-2.3,2.4-2.69,11.88,7.29,23.76,14.59,35.64,21.87,.84,.52,1.75,.93,2.62,1.39,2.99,.93,5.61,2.41,7.54,4.95,3.47,2.08,6.95,4.17,10.42,6.25,5.91,2.14,10.73,6.14,15.97,9.41,.53,.33,.79,.94,.52,1.63-1.84-.22-3.68-.54-5.52-.64-10.36-.53-19.72,7.89-21.53,18.4-2.12,12.3,4.81,18.73,14.12,24.2,12.31,7.23,24.49,14.67,36.7,22.05,.51,.31,.84,.89,1.25,1.35-.55,1.02-1.11,2.04-1.66,3.06-12.46-7.88-24.92-15.76-37.38-23.64-5.77-3.64-11.54-7.26-17.32-10.89-.28-.3-.4-.65-.36-1.05,1.55-3.7,2.45-7.46,2.37-11.57-.17-9.18-4.82-15.38-12.81-18.92-8.27-3.66-16.28-2.81-23.26,3.5-1.29,1.16-2.34,2.6-3.93,3.42-.39,.15-.75,.09-1.08-.18Z"/>
  <path class="cls-12" d="M88.61,348.82c1.27-3.48,.18-7.11,.67-10.63,18.68,8.58,37.08,17.85,56.11,25.58,25.66,10.42,50.19,7.05,72.66-9.34,7.04-5.13,13.11-11.45,19.59-17.26,11.85-10.63,23.88-21.06,35.51-31.93,8.19-7.66,16.86-14.79,24.69-22.84,1.11-1.15,.83-3.94,3.54-3.43,1.98,7.91-1.53,13.7-7.14,18.75-10.2,9.16-20.24,18.48-30.54,27.53-15.62,13.73-30.15,28.75-46.68,41.4-15.63,11.95-33.61,16.01-53.19,13.7-11.78-1.39-22.12-6.48-32.63-11.33-14.14-6.53-28.28-13.04-42.42-19.56-.24-.08-.35-.2-.32-.36,.03-.18,.08-.27,.15-.27Z"/>
  <path class="cls-12" d="M170.26,49.43c-2.55-1.59-5.39-2.74-7.54-4.95,9.53-8.96,18.45-18.53,28.17-27.3,16.3-14.71,42.37-18.79,62.06-8.68,15.5,7.96,30.54,16.8,45.77,25.28,2.49,1.39,4.88,2.95,7.32,4.44-2.21,2.66-4.91,4.69-8.02,6.2-6.13-2.2-11.39-6.03-17.08-9.04-10.32-5.46-19.94-12.3-30.81-16.6-19.14-7.57-37.35-5.3-54.45,6.31-3.44,2.34-6.37,5.14-9.32,7.98-4.57,4.4-9.22,8.71-13.79,13.1-.96,.92-2.23,1.69-2.3,3.26Z"/>
  <path class="cls-7" d="M88.61,348.82c.04,.21,.1,.42,.17,.63-2.2,9.28-8.26,14.3-17.73,14.4-10.83,.11-21.67,.06-32.5,.01-5.05-.02-6.99-2.01-6.98-6.99,0-6.22,.08-12.45,.12-18.67,17.65,0,35.3,.07,52.96-.08,3.14-.03,4.22,.92,3.93,4-.21,2.21,.01,4.47,.04,6.7Z"/>
  <path class="cls-10" d="M197.93,227.3c-4.55,3.03-9.08,6.09-13.66,9.07-4.59,2.98-9.41,.67-9.47-4.69-.12-12.95-.03-25.9-.05-38.84,0-3.27,1.8-5.26,4.5-6.68,12.48,0,24.95,0,37.43-.01,.02,.2,.05,.39,.06,.59-2.01,1.79-4.49,1.17-6.79,1.19-10.78,.09-10.78,.05-10.78,10.97,0,7.71,.03,15.43-.02,23.14-.01,1.82,.31,3.78-1.23,5.27Z"/>
  <path class="cls-1" d="M168.08,154.4c3.83-10.62,11.37-17.06,22.41-18.92,9.48-1.59,18.33-.23,24.87,7.91-5.15,8.09-10.24,16.23-15.48,24.26-1.94,2.97-5.14,3.72-8.17,1.84-7.94-4.93-15.76-10.04-23.63-15.09Z"/>
  <path class="cls-1" d="M66.8,51.06c18.19,5.88,25.2,28.81,13.41,43.91-.69,.88-1.44,1.71-2.17,2.56-7.9-4.92-15.85-9.77-23.69-14.78-3.03-1.94-3.65-5.2-1.69-8.48,4.64-7.78,9.41-15.47,14.13-23.2Z"/>
  <path class="cls-8" d="M124.46,21.23c-5.3,12.46-14.98,18.46-28.25,18.5-6.87,.02-13.1-2.41-18.1-7.41,4.75-8.01,9.43-16.05,14.28-24,1.9-3.12,4.98-3.95,8.04-2.09,8.07,4.9,16.03,9.99,24.03,15.01Z"/>
  <path class="cls-7" d="M298.02,44.41c2.27-2.58,4.91-4.69,8.02-6.2,2.41-.61,4.86-.94,7.36-.94,10.58,.01,21.16-.02,31.74,.02,5.49,.02,7.31,1.92,7.3,7.45,0,3.11-.07,6.22-.12,9.33-1.45,1-3.11,.73-4.71,.73-17.43,.02-34.85,.03-52.28,.05-.88-3.94,1.15-7.12,2.69-10.44Z"/>
  <path class="cls-3" d="M188.97,309.74c3.54-.9,6.82-2.37,9.77-4.54,.98-.26,1.97-.52,2.95-.78-.06,12.17-11.48,23.86-23.6,24-8.85,.11-17.7,.06-26.55,.02-4.32-.02-6.13-1.81-6.05-5.77,.07-3.33,2.39-5.46,6.13-5.48,7.23-.04,14.47-.26,21.68,.06,6.72,.29,11.85-2.09,15.66-7.52Z"/>
  <path class="cls-3" d="M197.18,66.72c-4.23-3.61-9.28-5.98-13.85-9.08-.91-.62-2.05-.92-2.64-1.96,6.93-4.23,14.07-4.14,20.86-.11,11.44,6.78,22.61,14.01,33.96,20.94,2.81,1.72,3.46,4.11,2.92,7.01-.45,2.39-2.32,3.46-4.51,3.88-1.95,.37-3.62-.62-5.2-1.6-8.67-5.36-17.32-10.76-26-16.1-1.78-1.1-3.69-1.99-5.53-2.98Z"/>
  <path class="cls-6" d="M197.93,227.3c.02-12.19,.13-24.39,0-36.58-.03-3,.67-4.22,3.9-4.05,4.96,.26,9.95,.06,14.93,.06,2.94,.78,3.75,3.01,3.75,5.7,.02,13.07-.03,26.15,.05,39.22,.02,2.58-1.03,4.28-3.2,5.4-2.2,1.13-4.16,.8-6.28-.58-4.36-2.84-8.24-6.4-13.04-8.56-.02-.21-.06-.41-.11-.61Z"/>
  <path class="cls-5" d="M229.44,260.96c2.87,0,5.74-.05,8.6,.01,3.1,.07,5.41,2.34,5.56,5.35,.14,2.7-2.37,5.75-5.24,5.82-5.98,.15-11.97,.19-17.95-.03-3.28-.12-5.36-2.89-5.18-6.08,.2-3.41,1.88-4.98,5.6-5.07,2.87-.07,5.74-.01,8.6-.01Z"/>
  <path class="cls-11" d="M54.77,322.28c.05-3.47,2.06-5.23,5.84-5.11,2.9,.09,5.37,2.61,5.4,5.54,.04,2.97-2.7,5.49-5.94,5.49-3.08,0-5.36-2.55-5.3-5.91Z"/>
  <path class="cls-1" d="M165.79,99.81c.01,.26,.03,.53,.04,.79-4.7,7.79-14.25,12.48-22.49,11.06-10.14-1.75-17.27-8.03-19.23-17.37-1.35-6.41-.13-12.6,2.67-18.49,.25,0,.5,0,.75,0,4.63,1.94,8.58,5.03,12.82,7.62,7.77,4.76,15.51,9.58,23.16,14.52,.83,.53,1.8,.91,2.29,1.87Z"/>
  <path class="cls-11" d="M323.72,111.76c-2.91,.07-5.57-2.4-5.73-5.32-.18-3.2,2.51-5.89,5.91-5.89,3.33,0,5.25,1.93,5.33,5.39,.07,3.14-2.4,5.76-5.51,5.83Z"/>
  <path class="cls-8" d="M165.79,99.81c-5.18-1.89-9.39-5.46-14.05-8.24-7.66-4.57-15.13-9.46-22.65-14.25-.6-.38-1.05-1-1.56-1.52,10.47-14.94,30.97-11.62,38.53,1.7,4.08,7.19,4.41,14.93-.26,22.31Z"/>
</svg>