<?xml version="1.0" encoding="UTF-8"?>
<svg id="Layer_1" data-name="Layer 1" xmlns="http://www.w3.org/2000/svg" viewBox="0 0 74.93 74.93">
  <defs>
    <style>
      .cls-1 {
        fill: #f0f0f0;
      }

      .cls-2 {
        fill: #1876f1;
      }

      .cls-3 {
        fill: #d6e5f8;
      }

      .cls-4 {
        fill: #fefefe;
      }
    </style>
  </defs>
  <path class="cls-4" d="M37.38,74.91c-12.26,0-24.52,0-36.78,.01-.5,0-.6-.09-.6-.6C.02,49.76,.02,25.19,0,.62,0,.05,.17,0,.65,0,25.2,.02,49.74,.02,74.29,0c.52,0,.64,.1,.64,.63-.02,24.55-.02,49.09,0,73.64,0,.58-.17,.65-.69,.65-12.28-.02-24.57-.01-36.85-.01Z"/>
  <path class="cls-2" d="M31.7,72.88c-4.71-.92-9.2-2.45-13.29-4.99-8.55-5.29-13.77-12.93-15.76-22.74-1.69-8.33-.68-16.38,3.11-23.98C10.45,11.75,18.03,5.74,28.21,3.16c11.03-2.8,21.3-.91,30.55,5.72,7.01,5.02,11.25,12.01,13.15,20.37,2.09,9.2,1.01,18.04-3.59,26.32-4.21,7.57-10.6,12.61-18.69,15.55-2.13,.77-4.31,1.33-6.53,1.77-.1,.03-.18,0-.23-.08-.17-.32-.14-.66-.14-1,0-7.59,0-15.18,0-22.77,0-1.23,.12-1.35,1.33-1.35,2.02,0,4.04,0,6.06,0,.93,0,.98-.05,1.13-.95,.43-2.69,.84-5.38,1.25-8.08,.12-.82,.07-.88-.76-.88-2.55,0-5.11,0-7.66,0-1.22,0-1.33-.11-1.33-1.34,0-1.8-.01-3.6,0-5.4,.01-1,.16-1.98,.59-2.91,.8-1.72,2.2-2.61,4.02-2.89,1.52-.24,3.06-.17,4.59-.18,1.13,0,1.15-.03,1.16-1.13,0-2.12,0-4.23,0-6.35,0-.49-.1-.86-.67-.94-3.69-.57-7.39-.91-11.08-.02-5.39,1.3-8.41,4.86-9.11,10.61-.29,2.45-.09,4.91-.15,7.36-.02,.73,.01,1.46-.01,2.19-.03,.81-.19,.98-1.01,.99-2.16,.02-4.33,0-6.5,0-.24,0-.49,.02-.73,0-.6-.04-.81,.24-.81,.82,.01,2.75,0,5.5,0,8.25,0,.74,.1,.84,.86,.84,2.29,.01,4.57,0,6.86,0,1.2,0,1.33,.13,1.33,1.35,0,7.59,0,15.18,0,22.77,0,.34,.03,.68-.13,1-.06,.09-.14,.12-.23,.08Z"/>
  <path class="cls-3" d="M42.97,72.86s.08,0,.11,.02c-.17,.19-.4,.13-.62,.13-3.39,0-6.77,0-10.16,0-.21,0-.44,.06-.61-.13,.03-.03,.07-.03,.11-.02,.31-.24,.68-.23,1.04-.23,3.03,0,6.05,0,9.08,0,.36,0,.73-.01,1.04,.23Z"/>
  <path class="cls-1" d="M42.97,72.86c-3.72,0-7.44,0-11.16,0,0-8.12,0-16.25,.03-24.37,0-.53-.23-.58-.65-.57-2.58,.01-5.16,0-7.73,.02-.53,0-.7-.12-.7-.68,.03-2.99,.03-5.98,0-8.98,0-.54,.13-.71,.69-.7,2.55,.03,5.11,0,7.66,.03,.56,0,.74-.14,.74-.72-.03-2.6-.05-5.21,.02-7.81,.07-2.86,.66-5.6,2.27-8.02,1.86-2.79,4.59-4.19,7.78-4.81,3.64-.72,7.26-.37,10.87,.21,.45,.07,.52,.27,.52,.67-.02,2.53-.02,5.06,0,7.59,0,.47-.13,.62-.61,.62-1.58,0-3.16-.09-4.74,.06-3.09,.28-4.86,2.05-4.97,5.13-.08,2.19,0,4.38-.03,6.57,0,.53,.28,.51,.65,.51,2.85,0,5.69,0,8.54-.01,.53,0,.76,.02,.65,.7-.5,2.99-.94,6-1.37,9-.08,.53-.29,.65-.8,.65-2.33-.03-4.67,0-7-.02-.42,0-.66,.04-.65,.57,.02,8.12,.02,16.25,.03,24.37Z"/>
</svg>