<?xml version="1.0" encoding="UTF-8"?>
<svg id="Layer_1" data-name="Layer 1" xmlns="http://www.w3.org/2000/svg" viewBox="0 0 438.86 438.86">
  <defs>
    <style>
      .cls-1 {
        fill: #c4365e;
      }

      .cls-2 {
        fill: #d06b46;
      }

      .cls-3 {
        fill: #d88442;
      }

      .cls-4 {
        fill: #a71c8e;
      }

      .cls-5 {
        fill: #c64b4d;
      }

      .cls-6 {
        fill: #c74f4c;
      }

      .cls-7 {
        fill: #c32a67;
      }

      .cls-8 {
        fill: #c4375d;
      }

      .cls-9 {
        fill: #c53d58;
      }

      .cls-10 {
        fill: #c54254;
      }

      .cls-11 {
        fill: #c2236d;
      }

      .cls-12 {
        fill: #9a1e9a;
      }

      .cls-13 {
        fill: #c2216e;
      }

      .cls-14 {
        fill: #b01b85;
      }

      .cls-15 {
        fill: #c2266a;
      }

      .cls-16 {
        fill: #d98840;
      }

      .cls-17 {
        fill: #9120a3;
      }

      .cls-18 {
        fill: #c32e64;
      }

      .cls-19 {
        fill: #c54354;
      }

      .cls-20 {
        fill: #a11e94;
      }

      .cls-21 {
        fill: #7a23ba;
      }

      .cls-22 {
        fill: #a71d8e;
      }

      .cls-23 {
        fill: #aa1c8b;
      }

      .cls-24 {
        fill: #8421b0;
      }

      .cls-25 {
        fill: #ca574b;
      }

      .cls-26 {
        fill: #c54056;
      }

      .cls-27 {
        fill: #c54552;
      }

      .cls-28 {
        fill: #b71a7f;
      }

      .cls-29 {
        fill: #d37545;
      }

      .cls-30 {
        fill: #8d20a7;
      }

      .cls-31 {
        fill: #7024c3;
      }

      .cls-32 {
        fill: #c33062;
      }

      .cls-33 {
        fill: #df993d;
      }

      .cls-34 {
        fill: #8721ad;
      }

      .cls-35 {
        fill: #c2236c;
      }

      .cls-36 {
        fill: #b41b81;
      }

      .cls-37 {
        fill: #ca564b;
      }

      .cls-38 {
        fill: #b31b82;
      }

      .cls-39 {
        fill: #a41d91;
      }

      .cls-40 {
        fill: #c43360;
      }

      .cls-41 {
        fill: #b81a7e;
      }

      .cls-42 {
        fill: #bd1a79;
      }

      .cls-43 {
        fill: #d78042;
      }

      .cls-44 {
        fill: #c6484f;
      }

      .cls-45 {
        fill: #ab1c8b;
      }

      .cls-46 {
        fill: #d67c43;
      }

      .cls-47 {
        fill: #ab1c8a;
      }

      .cls-48 {
        fill: #8721ac;
      }

      .cls-49 {
        fill: #9d1e97;
      }

      .cls-50 {
        fill: #d37445;
      }

      .cls-51 {
        fill: #cd6248;
      }

      .cls-52 {
        fill: #d57c43;
      }

      .cls-53 {
        fill: #c32868;
      }

      .cls-54 {
        fill: #ba1a7c;
      }

      .cls-55 {
        fill: #c01976;
      }

      .cls-56 {
        fill: #c4395b;
      }

      .cls-57 {
        fill: #931fa1;
      }

      .cls-58 {
        fill: #edc794;
      }

      .cls-59 {
        fill: #cb5c4a;
      }

      .cls-60 {
        fill: #9020a4;
      }

      .cls-61 {
        fill: #7723bc;
      }

      .cls-62 {
        fill: #c32869;
      }

      .cls-63 {
        fill: #dd943e;
      }

      .cls-64 {
        fill: #c43460;
      }

      .cls-65 {
        fill: #d47844;
      }

      .cls-66 {
        fill: #c2266b;
      }

      .cls-67 {
        fill: #c6494f;
      }

      .cls-68 {
        fill: #ae1c88;
      }

      .cls-69 {
        fill: #c54156;
      }

      .cls-70 {
        fill: #e2a4a1;
      }

      .cls-71 {
        fill: #cf6847;
      }

      .cls-72 {
        fill: #cb5b4a;
      }

      .cls-73 {
        fill: #c11975;
      }

      .cls-74 {
        fill: #9b1e9a;
      }

      .cls-75 {
        fill: #d27046;
      }

      .cls-76 {
        fill: #9e1e97;
      }

      .cls-77 {
        fill: #e8b672;
      }

      .cls-78 {
        fill: #c32b67;
      }

      .cls-79 {
        fill: #cf83c0;
      }

      .cls-80 {
        fill: #971f9d;
      }

      .cls-81 {
        fill: #971f9e;
      }

      .cls-82 {
        fill: #ce6448;
      }

      .cls-83 {
        fill: #c21e71;
      }

      .cls-84 {
        fill: #8a20a9;
      }

      .cls-85 {
        fill: #cc5f49;
      }

      .cls-86 {
        fill: #c54651;
      }

      .cls-87 {
        fill: #c64850;
      }

      .cls-88 {
        fill: #c11b73;
      }

      .cls-89 {
        fill: #c43b5a;
      }

      .cls-90 {
        fill: #c33162;
      }

      .cls-91 {
        fill: #a11d94;
      }

      .cls-92 {
        fill: #941fa0;
      }

      .cls-93 {
        fill: #c2206f;
      }

      .cls-94 {
        fill: #ba1a7b;
      }

      .cls-95 {
        fill: #a81c8d;
      }

      .cls-96 {
        fill: #c4385c;
      }

      .cls-97 {
        fill: #a31d92;
      }

      .cls-98 {
        fill: #c4395c;
      }

      .cls-99 {
        fill: #db8c40;
      }

      .cls-100 {
        fill: #8e20a6;
      }

      .cls-101 {
        fill: #dc913f;
      }

      .cls-102 {
        fill: #c43a5b;
      }

      .cls-103 {
        fill: #8a20aa;
      }

      .cls-104 {
        fill: #c53e58;
      }

      .cls-105 {
        fill: #c2246c;
      }

      .cls-106 {
        fill: #b41b82;
      }

      .cls-107 {
        fill: #cd6049;
      }

      .cls-108 {
        fill: #7d22b6;
      }

      .cls-109 {
        fill: #b11b85;
      }

      .cls-110 {
        fill: #7423bf;
      }

      .cls-111 {
        fill: #a51d90;
      }

      .cls-112 {
        fill: #c8524c;
      }

      .cls-113 {
        fill: #c32b66;
      }

      .cls-114 {
        fill: #a01d94;
      }

      .cls-115 {
        fill: #c8534b;
      }

      .cls-116 {
        fill: #fefefe;
      }

      .cls-117 {
        fill: #be1978;
      }

      .cls-118 {
        fill: #8122b3;
      }
    </style>
  </defs>
  <path class="cls-116" d="M117.24,438.78c-37.9,0-75.79-.04-113.69,.08-2.83,0-3.55-.43-3.55-3.45C.1,291.37,.09,147.33,.02,3.29,.02,.62,.62,.02,3.29,.02,147.33,.09,291.37,.1,435.41,0c3.02,0,3.46,.72,3.45,3.55-.11,38.18-.08,76.36-.08,114.55-.43,.29-.82,.25-1.18-.12-.96-1.57-.99-3.39-1.46-5.1-.21-2.18-.75-4.31-1.04-6.48-.23-3.01-1.26-5.82-2.13-8.68-.5-2.25-1.14-4.46-1.92-6.63-.71-2.34-1.43-4.68-2.37-6.94-1.01-2.59-1.94-5.22-3.31-7.66-1.07-2.29-2.12-4.58-3.48-6.72-1.13-2-2-4.14-3.41-5.98-1.59-2.61-3.03-5.31-5.01-7.66-1.62-2.34-3.34-4.6-5.15-6.79-1.85-1.89-3.51-3.95-5.27-5.92-2.29-2.79-4.89-5.27-7.57-7.67-3.06-2.03-5.32-5.03-8.49-6.93-3.54-2.76-7.08-5.54-11.2-7.43-3.22-2.46-6.72-4.41-10.53-5.81-5.44-2.91-11.02-5.44-17.1-6.75-15.43-5.26-31.36-6.62-47.55-6.59-53.95,.1-107.91,.11-161.86,0-16.05-.04-31.82,1.51-47.16,6.4-5.96,1.63-11.65,3.97-17.16,6.78-3.67,1.66-7.28,3.46-10.58,5.81-3.96,2.16-7.6,4.79-11.12,7.59-3.19,1.87-5.41,4.94-8.49,6.93-2.75,2.35-5.18,5.01-7.71,7.59-1.85,2.39-3.84,4.67-5.91,6.87-1.93,2.6-3.91,5.15-5.79,7.78-1.68,2.34-2.96,4.93-4.55,7.33-1.41,1.84-2.42,3.9-3.37,6-1.21,2.24-2.31,4.53-3.39,6.83-1.08,1.91-1.65,4.04-2.51,6.04-1.05,2.43-1.72,4.99-2.55,7.5-.77,1.94-1.25,3.96-1.73,5.99-.92,2.86-1.87,5.7-2.13,8.72-.26,2-.79,3.95-.93,5.97-.54,2.5-.78,5.02-.74,7.58-.15,3.33-1.25,6.58-.8,9.96,.08,.98-.02,1.95-.02,2.92,.08,2.23,.06,4.45,.02,6.67,.07,2.25,.07,4.5,0,6.75,.06,2.01,.07,4.03,0,6.04,.07,2.28,.07,4.55,0,6.83,.08,2.29,.07,4.59,0,6.88,.1,2.57,.08,5.15,0,7.72,.1,3.38,.11,6.75,0,10.13,.08,3.11,.11,6.21,0,9.32,.06,2.31,.09,4.61,0,6.92,.07,2.29,.08,4.58,0,6.87,.07,2.28,.08,4.57,0,6.85,.07,2.28,.08,4.56,0,6.84,.07,2.28,.08,4.57,0,6.85,.07,2.29,.08,4.58,0,6.87,.08,2.55,.08,5.1,0,7.65,.08,2.3,.08,4.61,0,6.91,.09,2.83,.09,5.65,0,8.48,.08,2.58,.09,5.15,0,7.72,.08,2.83,.09,5.67,0,8.5,.08,2.57,.09,5.14,0,7.71,.07,2.56,.09,5.11,0,7.67,.06,2.29,.08,4.58,0,6.86,.06,2.28,.08,4.55,0,6.83,.06,2,.06,4.01,.04,6.02-.68,4.21,.9,8.28,.79,12.46-.08,2.34,.49,4.62,.8,6.92,.3,2.88,.94,5.7,1.46,8.54,.4,2.33,1.28,4.53,1.85,6.81,.5,2.65,1.58,5.12,2.38,7.68,.52,1.73,1.08,3.45,1.81,5.11,.9,2.41,1.83,4.81,3.1,7.06,1.32,2.85,2.76,5.63,4.2,8.42,1.03,2.07,2.52,3.85,3.67,5.85,1.26,2.57,3,4.82,4.78,7.03,1.61,2.31,3.2,4.63,5.19,6.64,2.2,2.1,3.65,4.85,5.97,6.83,2.43,2.37,4.58,5.05,7.51,6.89,2.56,2.32,5.03,4.75,7.93,6.67,2.97,2.2,5.84,4.53,9.21,6.13,3.74,2.78,7.87,4.86,12.11,6.76,6.25,3.33,12.91,5.59,19.68,7.57,5.86,1.82,11.84,3.05,17.89,4.03,1.75,.28,4.18-.06,4.71,2.65Z"/>
  <path class="cls-116" d="M438.78,322.48c0,37.77-.03,75.54,.07,113.31,0,2.55-.51,3.07-3.06,3.06-38.05-.1-76.11-.07-114.16-.07,.57-2.73,3.05-2.21,4.76-2.5,6.3-1.07,12.55-2.26,18.66-4.16,6.79-1.94,13.42-4.3,19.71-7.57,4.24-1.88,8.34-4.02,12.11-6.76,3.38-1.59,6.24-3.95,9.22-6.13,2.92-1.92,5.38-4.39,7.98-6.7,2.8-1.82,4.98-4.3,7.15-6.79,1.26-1.35,2.85-2.4,3.75-4.08,1.02-1.35,2.31-2.46,3.42-3.74,1.8-2.17,3.46-4.44,5.09-6.73,1.7-2.03,3.09-4.27,4.29-6.63,1.37-2.07,2.93-4.02,3.94-6.31,1.24-2.45,2.49-4.89,3.64-7.39,1.3-2.25,2.18-4.69,3.11-7.1,.95-2.25,1.68-4.57,2.41-6.89,.82-2.35,1.58-4.71,2.09-7.15,.69-1.99,1.28-4.01,1.67-6.09,.49-2.54,.93-5.09,1.31-7.65,.3-2,.55-4.01,1.65-5.79,.37-.38,.77-.42,1.21-.13Z"/>
  <path class="cls-33" d="M345.81,432.94c-7.1,2.76-14.62,3.68-22.06,4.91-.78,.13-1.74-.11-2.13,.93h-4.28c-.86-.64-1.71-.64-2.57,0H129.21c-1.71-.7-3.42-.7-5.13,0h-6.84c-3.29-2.17-7.21-1.6-10.81-2.45-4.21-.99-8.46-1.83-12.51-3.39,.71-1.71,2.24-2.04,3.83-2.24,1.56-.2,3.13-.15,4.69-.15,78.28,0,156.57-.02,234.85,.04,2.97,0,6.4-1,8.52,2.35Z"/>
  <path class="cls-115" d="M438.78,322.48l-.38,.05h-.38c-1.41,1.16-3.11,1.3-4.82,1.31-11.21,.03-22.43,.08-33.64-.03-2.79-.03-5.49-.39-6.34-3.78-.43-1.97-.3-3.97-.3-5.96,0-55.28,0-110.57,0-165.85,0-2.41-.29-4.86,.67-7.18,.26-.53,.68-.84,1.27-.92,1.83,1.34,1.45,3.33,1.52,5.19,.06,2.3,.08,4.61,0,6.91,.06,2.01,.07,4.03,0,6.04,.07,2.01,.07,4.02,0,6.04,.08,2.28,.07,4.55,0,6.83,.08,2.54,.08,5.08,0,7.62,.07,2.29,.08,4.58,0,6.87,.08,2.29,.08,4.59,0,6.88,.08,2.56,.08,5.12,0,7.68,.09,2.58,.08,5.16,0,7.73,.1,3.11,.1,6.22,0,9.33,.09,3.11,.1,6.22,0,9.33,.07,2.57,.09,5.14,0,7.71,.06,2.3,.08,4.59,0,6.89,.07,2.29,.08,4.57,0,6.86,.07,2.29,.08,4.58,0,6.87,.08,2.3,.07,4.6,0,6.9,.1,2.83,.09,5.67,0,8.5,.09,3.1,.1,6.2,0,9.3,.07,2.57,.09,5.15,0,7.72,.07,2.31,.08,4.62,0,6.93,.09,2.58,.08,5.15,0,7.73,.11,2.58,.08,5.17,.01,7.75-.17,3.51,1.6,4.67,4.97,4.63,9.95-.1,19.91-.05,29.87-.02,1.98,0,3.99-.18,5.91,.55,1.21,.38,1.01,1.69,1.62,2.46v5.13Z"/>
  <path class="cls-7" d="M395.31,226.71c0-3.14,0-6.28,0-9.41,1.46-1.45,3.36-1.34,5.18-1.35,11.03-.05,22.06-.05,33.09,0,1.84,0,3.71,0,5.2,1.36v9.41c-1.5,1.35-3.36,1.35-5.2,1.36-11.03,.04-22.06,.05-33.09,0-1.82,0-3.72,.1-5.18-1.35Z"/>
  <path class="cls-26" d="M395.31,279.72c0-3.14,0-6.28,0-9.41,1.46-1.46,3.36-1.34,5.18-1.35,11.03-.05,22.05-.05,33.08,0,1.84,0,3.7,0,5.2,1.36v9.41c-1.5,1.35-3.36,1.35-5.2,1.36-11.03,.04-22.06,.05-33.08,0-1.82,0-3.72,.11-5.18-1.35Z"/>
  <path class="cls-15" d="M438.78,217.3c-14.49,0-28.98,0-43.48,0,0-3.14,0-6.27,0-9.41,1.46-1.45,3.36-1.35,5.18-1.35,11.03-.05,22.06-.05,33.09,0,1.84,0,3.71,0,5.2,1.36v9.41Z"/>
  <path class="cls-89" d="M438.78,270.31c-14.49,0-28.98,0-43.47,0,0-2.85,0-5.7,0-8.55,1.46-1.46,3.36-1.34,5.18-1.35,11.03-.05,22.06-.05,33.08,0,1.84,0,3.7,0,5.2,1.36v8.55Z"/>
  <path class="cls-19" d="M395.31,279.72c14.49,0,28.98,0,43.47,0v7.7c-1.5,1.35-3.36,1.35-5.2,1.36-11.03,.04-22.06,.05-33.08,0-1.82,0-3.72,.11-5.18-1.35,0-2.57,0-5.13,0-7.7Z"/>
  <path class="cls-55" d="M395.29,178.82c0-2.56,0-5.13,0-7.69,1.47-1.44,3.36-1.36,5.18-1.37,11.04-.05,22.07-.05,33.11,0,1.84,0,3.71,0,5.21,1.36v7.7c-1.5,1.35-3.37,1.35-5.21,1.36-11.03,.04-22.06,.05-33.1,0-1.82,0-3.72,.09-5.19-1.35Z"/>
  <path class="cls-87" d="M395.31,301.96c0-2.57,0-5.13,0-7.7,1.46-1.46,3.36-1.34,5.18-1.35,11.03-.05,22.05-.05,33.08,0,1.84,0,3.7,0,5.2,1.36v7.7c-1.5,1.35-3.36,1.35-5.2,1.36-11.03,.04-22.06,.05-33.08,0-1.82,0-3.72,.11-5.18-1.35Z"/>
  <path class="cls-18" d="M395.31,226.71h43.47v7.69c-1.5,1.35-3.36,1.35-5.2,1.36-11.03,.04-22.06,.05-33.09,0-1.82,0-3.72,.1-5.18-1.35,0-2.57,0-5.13,0-7.7Z"/>
  <path class="cls-93" d="M395.3,200.2c0-2.57,0-5.13,0-7.7,1.47-1.45,3.36-1.35,5.19-1.35,11.03-.05,22.06-.05,33.09,0,1.84,0,3.71,0,5.2,1.36v7.7c-1.5,1.35-3.37,1.35-5.2,1.36-11.03,.04-22.06,.05-33.09,0-1.82,0-3.72,.1-5.18-1.35Z"/>
  <path class="cls-5" d="M395.31,301.96c14.49,0,28.98,0,43.47,0v7.7c-1.5,1.35-3.37,1.35-5.21,1.36-11.03,.04-22.07,.05-33.1,0-1.82,0-3.72,.08-5.18-1.37,0-2.56,.02-5.13,.03-7.69Z"/>
  <path class="cls-11" d="M395.3,200.2c14.49,0,28.99,0,43.48,0v7.7c-14.49,0-28.99,0-43.48,0,0-2.56,0-5.13,0-7.69Z"/>
  <path class="cls-4" d="M394.91,140.33l-.16,.02c-1.29-.48-1.59-1.67-1.61-2.77-.12-5.95-.8-11.92,.45-17.83,.94-1.8,2.68-2.04,4.39-2.08,12.82-.27,25.65,.09,38.47-.22,.56-.01,1.09,.3,1.58,.6,.25-.03,.5-.02,.75,.04v4.28c-.64,.86-.65,1.71,0,2.57v.86c-1.78,1.54-3.97,1.3-6.07,1.31-10.19,.04-20.37-.02-30.56,.03-5.08,.03-5.17,.16-5.75,5.08,0,2.08,.17,4.16-.22,6.22-.18,.79-.49,1.5-1.28,1.89Z"/>
  <path class="cls-42" d="M438.78,171.12c-14.5,0-29,0-43.5,.01,0-2.28,0-4.56,0-6.84,1.47-1.44,3.36-1.36,5.19-1.37,11.04-.05,22.07-.05,33.11,0,1.84,0,3.71,0,5.21,1.36v6.84Z"/>
  <path class="cls-96" d="M438.78,261.76c-14.49,0-28.98,0-43.47,0,0-2.28,0-4.56,0-6.84,1.46-1.46,3.36-1.34,5.18-1.35,11.03-.05,22.06-.05,33.08,0,1.84,0,3.7,0,5.2,1.36v6.84Z"/>
  <path class="cls-32" d="M395.31,234.4c14.49,0,28.98,0,43.47,0v6.84c-1.5,1.35-3.36,1.35-5.2,1.36-11.03,.04-22.06,.05-33.09,0-1.82,0-3.72,.1-5.18-1.35,0-2.28,0-4.56,0-6.84Z"/>
  <path class="cls-106" d="M395.27,152.32c0-2.28,0-4.56,0-6.85,1.47-1.43,3.36-1.36,5.19-1.37,11.04-.05,22.08-.04,33.12,0,1.84,0,3.71,0,5.21,1.36v6.84c-1.5,1.35-3.37,1.36-5.21,1.36-11.04,.04-22.07,.04-33.11,0-1.83,0-3.72,.08-5.2-1.34Z"/>
  <path class="cls-40" d="M395.31,241.24c14.49,0,28.98,0,43.47,0v6.84c-1.5,1.35-3.36,1.35-5.2,1.36-11.03,.04-22.06,.05-33.08,0-1.82,0-3.72,.1-5.18-1.35,0-2.28,0-4.56,0-6.84Z"/>
  <path class="cls-45" d="M395.31,132.64c-.05-.71-.04-1.42-.15-2.11-.57-3.63,.7-4.9,4.58-4.83,13.01,.25,26.02,.09,39.04,.09v6.84c-1.5,1.35-3.36,1.35-5.2,1.36-11.03,.04-22.06,.05-33.08,0-1.82,0-3.72,.11-5.18-1.35Z"/>
  <path class="cls-1" d="M395.31,248.08c14.49,0,28.98,0,43.47,0v6.84c-14.49,0-28.98,0-43.47,0,0-2.28,0-4.56,0-6.84Z"/>
  <path class="cls-27" d="M438.78,294.26c-14.49,0-28.98,0-43.47,0,0-2.28,0-4.56,0-6.83,14.49,0,28.98,0,43.47,0v6.84Z"/>
  <path class="cls-14" d="M438.78,145.46c-14.51,0-29.01,0-43.52,.01-.11-1.71-.23-3.43-.34-5.14,.13-.57,.26-1.14,.4-1.71,1.46-1.46,3.36-1.35,5.18-1.36,11.03-.05,22.06-.05,33.09,0,1.84,0,3.7,0,5.2,1.36v6.84Z"/>
  <path class="cls-83" d="M438.78,192.5c-14.5,0-28.99,0-43.48,0,0-2.28,0-4.56,0-6.84,1.47-1.45,3.36-1.35,5.19-1.36,11.03-.05,22.06-.05,33.1,0,1.84,0,3.71,0,5.21,1.36v6.84Z"/>
  <path class="cls-88" d="M438.78,185.65c-14.5,0-28.99,0-43.49,0,0-2.28,0-4.55,0-6.83,14.5,0,28.99,0,43.49,0v6.84Z"/>
  <path class="cls-28" d="M395.27,152.32c14.5,0,29.01-.01,43.51-.02v5.99c-1.5,1.35-3.37,1.36-5.21,1.36-11.04,.04-22.07,.05-33.11,0-1.83,0-3.72,.08-5.2-1.34,0-1.99,0-3.99,0-5.98Z"/>
  <path class="cls-68" d="M438.78,138.62c-14.49,0-28.98,0-43.47,0,0-1.99,0-3.99,0-5.98,14.49,0,28.98,0,43.47,0v5.99Z"/>
  <path class="cls-54" d="M395.27,158.3c14.5,0,29.01,0,43.51-.01v5.99c-14.5,0-29,0-43.5,.01,0-1.99,0-3.99,0-5.98Z"/>
  <path class="cls-6" d="M395.29,309.64c14.5,0,29,0,43.49,0v5.99c-.23,.4-.49,.41-.76,.04-12.33-.01-24.66-.03-36.98-.04q-6,0-5.75-5.99Z"/>
  <path class="cls-77" d="M124.08,438.78c1.71-1.39,3.42-1.21,5.13,0h-5.13Z"/>
  <path class="cls-79" d="M438.78,124.94c-1.08-.86-1.26-1.71,0-2.57v2.57Z"/>
  <path class="cls-58" d="M314.78,438.78c.86-1.08,1.71-1.22,2.57,0h-2.57Z"/>
  <path class="cls-70" d="M438.02,315.68c.25,0,.51,0,.76-.04v1.71c-.82-.3-.82-.97-.76-1.67Z"/>
  <path class="cls-118" d="M395.98,35.32c2.88,2.15,5.61,4.44,7.5,7.57-1.6,2.88-4.43,2.12-6.85,2.13-19.87,.08-39.74,.04-59.61,.05-4.97,0-9.94,.06-14.9-.11-2.04-.07-3.95,.21-5.72,1.26-2.22,.71-4.51,.58-6.78,.58-59.83,0-119.66,0-179.49,0-2.27,0-4.57,.13-6.77-.65-1.88-1.28-4-1.22-6.16-1.19-24.63,.25-49.27,.08-73.91,.07-2.58,0-5.55,.74-7.32-2.19,2.28-2.82,4.74-5.45,7.75-7.52,3.27,.24,6.54,.14,9.82,.14,110.87,0,221.74,0,332.61,0,3.27,0,6.55,.1,9.82-.14Z"/>
  <path class="cls-108" d="M395.98,35.32c-.71,2.53-2.8,1.48-4.29,1.49-14.96,.08-29.92,.05-44.88,.05-99.31,0-198.62,0-297.93-.06-1.72,0-4.11,1.3-5.14-1.48,2.54-2.68,5.13-5.3,8.45-7.05,1.81-.48,3.65-.53,5.51-.53,108.11,.03,216.22,.03,324.34,0,1.86,0,3.7,.05,5.51,.53,3.32,1.75,5.9,4.37,8.45,7.05Z"/>
  <path class="cls-3" d="M401.84,398.55c-1.78,3.09-4.61,5.09-7.37,7.17-2.7,.21-5.39,.26-8.1,.26-111.86,0-223.72-.02-335.58,.02-1.86,0-3.69-.29-5.54-.27-2.85-2.03-5.49-4.27-7.54-7.15,1.35-2.52,3.83-2.2,6.03-2.21,25.92-.08,51.84-.15,77.76-.01,26.21,.14,52.41,.04,78.62,.08,64.52,.11,129.04-.17,193.55-.06,2.81,0,6.12-1.07,8.16,2.17Z"/>
  <path class="cls-16" d="M45.26,405.73c1.08-1.68,2.79-1.14,4.28-1.14,113.55-.02,227.1-.02,340.65,0,1.49,0,3.2-.53,4.29,1.13-2.26,2.64-4.91,4.8-7.95,6.49-2.53,.48-5.07,.6-7.65,.6-106.01-.02-212.02-.02-318.03,0-2.57,0-5.12-.12-7.65-.6-3.03-1.69-5.69-3.85-7.94-6.49Z"/>
  <path class="cls-21" d="M387.54,28.27c-1.67,1.05-3.54,.89-5.39,.89-108.19,0-216.39,0-324.58,0-1.85,0-3.72,.16-5.39-.89,3.36-3.1,7.07-5.71,11.14-7.8,2.65,.74,5.37,.43,8.05,.43,100.25,0,200.5,.07,300.74-.04,1.41,0,2.84,.43,4.23-.12,4.36,1.57,7.76,4.57,11.19,7.53Z"/>
  <path class="cls-63" d="M345.81,432.94c-1.65-1.07-3.5-1.01-5.36-1.01-80.39,0-160.79,0-241.18,0-1.86,0-3.71-.06-5.36,1.01-6.82-1.86-13.52-4.03-19.59-7.78,1.22-1.67,3.07-1.94,4.92-2.16,1.84-.22,3.7-.16,5.55-.16,90.04,0,180.08-.01,270.13,.04,3.6,0,7.51-.86,10.47,2.28-6.07,3.75-12.77,5.91-19.59,7.78Z"/>
  <path class="cls-101" d="M365.4,425.16c-4.17-1.15-8.44-.92-12.69-.92-88.56,0-177.12,0-265.69,0-4.25,0-8.52-.23-12.69,.92-4.48-1.48-8.42-3.93-12.14-6.76,1.09-1.83,2.95-2.08,4.8-2.28,1.7-.18,3.41-.13,5.12-.13,98.5,0,197-.01,295.51,.04,3.42,0,7.24-1,9.92,2.36-3.72,2.83-7.66,5.28-12.14,6.76Z"/>
  <path class="cls-31" d="M89.92,7.97c13.5-5.01,27.56-6.96,41.85-6.98,58.71-.11,117.42-.1,176.13,0,14.31,.02,28.36,2.05,41.89,6.99-.4,2.17-2.2,2.41-3.87,2.7-1.83,.32-3.69,.21-5.55,.21-80.35,0-160.69,0-241.04,0-1.85,0-3.72,.11-5.55-.21-1.67-.29-3.47-.54-3.87-2.7Z"/>
  <path class="cls-99" d="M377.54,418.4c-2.45-.84-4.96-1.03-7.55-1.03-100.09,.03-200.17,.03-300.26,0-2.59,0-5.1,.18-7.55,1.03-3.44-1.41-6.27-3.72-8.98-6.18,1.55-.96,3.27-.81,4.98-.81,107.79,0,215.58,0,323.37,0,1.71,0,3.43-.15,4.98,.81-2.72,2.46-5.54,4.77-8.99,6.18Z"/>
  <path class="cls-110" d="M89.92,7.97c1.58,1.55,3.56,1.53,5.58,1.53,82.9-.01,165.81-.01,248.71,0,2.02,0,4.01,.03,5.58-1.53,5.69,1.62,11.12,3.88,16.26,6.81-.16,2.32-1.98,2.53-3.67,2.79-1.69,.26-3.41,.16-5.12,.16-91.6,0-183.21,0-274.81,0-1.71,0-3.43,.1-5.12-.16-1.69-.26-3.51-.46-3.67-2.78,5.08-3.09,10.62-5.06,16.26-6.81Z"/>
  <path class="cls-61" d="M73.66,14.78c1.3,2.25,3.5,1.53,5.39,1.53,50,.03,99.99,.02,149.99,.02,43.87,0,87.74,0,131.62-.02,1.89,0,4.09,.72,5.39-1.53,3.8,1.35,7.23,3.34,10.29,5.97-.69,2.52-2.78,1.52-4.28,1.53-17.52,.07-35.04,.04-52.56,.04-83.75,0-167.51,0-251.26-.06-1.71,0-4.2,1.26-4.93-1.8,3.24-2.27,6.57-4.38,10.34-5.69Z"/>
  <path class="cls-43" d="M401.84,398.55c-1.53-1.05-3.27-.82-4.96-.82-117.92,0-235.84,0-353.76,0-1.84,0-3.72-.2-5.4,.86-2.42-1.93-4.3-4.34-6.14-6.79,1.87-1.83,4.26-1.36,6.48-1.37,17.52-.05,35.05,0,52.57-.04,3.4,0,6.86,.14,10.04-1.44,3.25-.89,6.02,1.03,9,1.65,4.82,1.01,9.51,2.67,14.49,2.98,1.96,.56,3.97,.37,5.95,.37,59.92,.01,119.84,.01,179.76,0,1.99,0,3.99,.18,5.93-.44,4.43-.42,8.67-2.42,13.25-1.63,3.32,.95,6.72,1.07,10.15,1.07,19.91,0,39.82-.03,59.73,.03,2.35,0,4.9-.54,6.86,1.46-.8,1.87-2.53,2.84-3.94,4.13Z"/>
  <path class="cls-24" d="M35.99,42.84c1.67,1.05,3.54,.86,5.38,.86,25.72,0,51.43-.02,77.15,.05,1.6,0,3.85-1.16,4.71,1.51-.59,.94-1.57,1.18-2.55,1.38-7.39,1.52-14.72,3.27-21.8,5.93-1.2,.45-2.49,.58-3.79,.31-17.99-.3-35.98-.04-53.96-.12-2.69-.01-5.4,.04-8.01-.73-1.28-.37-2.92-.41-3.08-2.32,1.99-2.29,3.97-4.58,5.96-6.87Z"/>
  <path class="cls-24" d="M316.49,45.26c1.3-2.21,3.48-1.54,5.38-1.54,25.41-.03,50.83-.02,76.24-.03,1.82,0,3.72,.36,5.37-.8,1.98,1.8,4,3.55,5.39,5.88,.08,2.38-1.72,2.65-3.4,2.95-1.68,.29-3.39,.19-5.09,.19-17.85,.02-35.7-.03-53.55,.02-1.27,0-2.55-.12-3.78,.3-1.71,.35-3.37,.06-4.96-.54-5.69-2.11-11.55-3.5-17.52-4.53-1.49-.26-3.09-.47-4.09-1.89Z"/>
  <path class="cls-46" d="M100.99,389.32c.44,.98,.33,1.45-.94,1.61-2.94,.37-5.83,.86-8.83,.85-19.88-.07-39.76-.01-59.64,0-2.18-1.93-3.78-4.31-5.21-6.82,1.85-1.85,4.24-1.39,6.46-1.4,14.65-.05,29.3-.04,43.95-.01,3.14,0,6.25-.14,9.32-.79,6.04-.28,10.38,3.33,14.9,6.55Z"/>
  <path class="cls-103" d="M414.01,55.61c2.29,2.2,3.86,4.87,5.13,7.75-1.9,2.61-4.76,2.15-7.38,2.18-15.42,.18-30.83-.21-46.25,.23-4.62-.23-7.38-3.55-10.43-6.35-.66-.6-.61-1.52-.16-2.34,1.01-1.44,2.56-1.79,4.14-1.8,17.76-.14,35.52-.25,53.27,.05,.55,0,1.11,.24,1.68,.28Z"/>
  <path class="cls-48" d="M30.03,49.71c2.85,1.37,5.89,1.69,9.01,1.69,17.36-.01,34.72-.02,52.07,.03,1.61,0,3.46-.69,4.79,.95-3.78,4.15-8.33,6.81-14.03,7.26-16.73-.12-33.46,.02-50.19-.08-2.61-.02-5.5,.54-7.37-2.16,1.91-2.56,3.82-5.12,5.73-7.68Z"/>
  <path class="cls-73" d="M1.08,183.94c0-3.42,0-6.84,0-10.26,1.46-1.46,3.36-1.35,5.17-1.35,11.15-.05,22.31-.05,33.46,0,1.69,0,3.41,.01,4.89,1.05,1.76,3.57,1.63,7.17,.13,10.79-1.45,1.12-3.18,1.13-4.87,1.14-11.34,.05-22.68,.06-34.01,0-1.69,0-3.44,0-4.77-1.35Z"/>
  <path class="cls-65" d="M87.31,383.24c-2.03,1.58-4.4,1.68-6.83,1.68-18.04,0-36.07,.04-54.11,.06-2.07-1.98-3.67-4.28-4.79-6.92,1.88-1.77,4.26-1.3,6.48-1.31,13.48-.05,26.96-.03,40.45-.02,2.7,0,5.39-.01,8.04-.62,4.94,.33,8.44,2.84,10.77,7.13Z"/>
  <path class="cls-112" d="M44.43,183.95c0-3.42,0-6.84,0-10.26-1.66-2.34-1.05-5.01-1.11-7.58-.06-2.3-.09-4.59,0-6.89-.06-2.28-.08-4.55,0-6.83-.06-2.04-.07-4.09,0-6.13,.05-2.12-.41-4.34,1.29-6.11,.62-.08,1.07,.15,1.37,.7,1,2,.79,4.17,.79,6.29,.02,55.91,.01,111.82,0,167.74,0,1.7,.07,3.42-.34,5.1-.73,2.6-2.88,2.92-5.04,2.95-11.88,.16-23.75,.13-35.63,.02-1.43-.01-2.83-.25-3.92-1.32-.46-4.25-1.04-8.5-.77-12.79,1.35,.05,1.48,1.14,1.79,2.08,.29,2.38,1.62,3.43,4.02,3.44,10.83,.03,21.66,0,32.49,0,2.68,0,3.96-1.2,3.91-3.86-.06-2.53-.09-5.05,.01-7.57-.07-2.3-.09-4.6,0-6.89-.07-2.3-.08-4.6,0-6.89-.08-2.56-.08-5.12,0-7.68-.08-2.57-.08-5.14,0-7.71-.09-2.83-.09-5.67,0-8.5-.08-2.58-.09-5.15,0-7.72-.08-2.83-.09-5.65,0-8.48-.07-2.3-.09-4.61,0-6.91-.07-2.55-.08-5.1,0-7.65-.07-2.29-.08-4.58,0-6.87-.07-2.28-.08-4.57,0-6.85-.07-2.28-.08-4.56,0-6.85-.07-2.28-.08-4.57,0-6.85-.07-2.29-.08-4.59,0-6.88-.09-2.32-.07-4.64,0-6.96,.13-3.12-.79-6.37,1.11-9.27Z"/>
  <path class="cls-75" d="M17.9,372.15c-1.89-2.63-3.22-5.53-4.24-8.59,1.73-1.71,3.96-1.34,6.05-1.35,11.65-.05,23.3-.03,34.95-.02,2.56,0,5.11-.04,7.63-.56,4.02,.69,7.94,5.02,8.29,9.15-1.1,1.68-2.88,1.72-4.57,1.74-15.35,.17-30.7-.04-46.05,.12-.72,0-1.4-.23-2.06-.5Z"/>
  <path class="cls-83" d="M44.43,183.95c0,3.13,0,6.27,0,9.4-1.48,1.46-3.39,1.34-5.22,1.35-10.96,.05-21.93,.05-32.9,0-1.83,0-3.75,.11-5.22-1.35,0-3.14,0-6.27,0-9.41,14.45,0,28.9,0,43.34,0Z"/>
  <path class="cls-34" d="M414.01,55.61c-1.37,1.55-3.2,.88-4.82,.88-16.36,.05-32.72,.02-49.08,.05-1.9,0-4.12-.63-5.17,1.85-5.1-.86-9.56-2.91-12.99-6.91,1.8-1.11,3.81-.95,5.8-.95,18.63,0,37.27,.02,55.9-.02,1.9,0,4.11,.66,5.24-1.76,2.04,2.03,3.71,4.34,5.13,6.85Z"/>
  <path class="cls-84" d="M24.3,57.39c1.89,.65,3.81,.88,5.82,.87,16.14-.05,32.27-.04,48.41,0,1.6,0,3.47-.68,4.63,1.19-2.13,4.23-5.68,6.47-10.24,7.3-15.49-.72-30.98-.11-46.47-.35-2.35-.04-4.89,.53-6.88-1.39,1.23-2.76,2.75-5.34,4.73-7.63Z"/>
  <path class="cls-107" d="M6.19,343.88c-.8-2.23-1.61-4.46-1.75-6.86,2.03-2.37,4.85-2.14,7.52-2.16,12.11-.07,24.21-.03,36.32-.05,3.69,1.93,5.08,5.48,3.83,9.8-1.23,1.17-2.8,1.38-4.37,1.4-12.25,.12-24.49,.1-36.74,.01-1.87-.01-3.74-.21-4.81-2.13Z"/>
  <path class="cls-29" d="M17.9,372.15c1.67-1.04,3.52-.93,5.38-.93,14.23,.01,28.46,.04,42.69-.04,1.49,0,3.6,1,4.22-1.58,4.11,.6,5.95,3.72,7.71,6.94-1.71,1.66-3.85,1.54-6,1.54-16.78-.02-33.55-.01-50.33-.01-1.22-1.97-2.45-3.94-3.67-5.91Z"/>
  <path class="cls-100" d="M19.57,65.02c15.86,.02,31.71,.06,47.57,.03,2.57,0,5.07,.14,7.52,.94-1.4,4.05-3.9,6.85-8.4,7.4-14.44-.28-28.87,0-43.3-.16-2.44-.03-5.23,.58-6.81-2.24,.63-2.29,1.89-4.2,3.43-5.97Z"/>
  <path class="cls-8" d="M44.41,248.93c0,2.85,0,5.7,0,8.56-1.48,1.47-3.39,1.34-5.22,1.35-10.96,.05-21.92,.05-32.89,0-1.83,0-3.74,.11-5.22-1.35,0-2.85,0-5.7,0-8.55,1.48-1.47,3.39-1.34,5.22-1.35,10.96-.05,21.92-.05,32.89,0,1.83,0,3.74-.12,5.22,1.35Z"/>
  <path class="cls-9" d="M44.41,265.18c0,2.85,0,5.7,0,8.56-1.47,1.47-3.39,1.34-5.22,1.35-10.96,.05-21.92,.05-32.89,0-1.83,0-3.74,.11-5.22-1.35,0-2.85,0-5.7,0-8.55,1.48-1.47,3.39-1.34,5.22-1.35,10.96-.05,21.92-.05,32.88,0,1.83,0,3.74-.12,5.22,1.35Z"/>
  <path class="cls-74" d="M5.96,97.19c0-2.04,.58-3.92,1.49-5.72,1.73-1.2,3.71-1.26,5.7-1.26,11.73-.01,23.46-.03,35.19,.01,1.96,0,3.99-.14,5.67,1.25,1.5,3.52-.59,5.78-2.8,8-1.49,.98-3.18,1.13-4.88,1.14-11.87,.07-23.73,.14-35.6-.06-2.01-.03-5.35,.81-4.76-3.36Z"/>
  <path class="cls-60" d="M422.64,69.14c1.58,2.13,2.66,4.5,3.43,7.02-1.88,2.24-4.53,2.17-7.05,2.18-13.89,.07-27.79,.09-41.68,.02-4.59-1.34-7.38-5.02-6.26-8.26,1.21-.85,2.61-1.14,4.03-1.14,15.85-.05,31.69-.4,47.53,.18Z"/>
  <path class="cls-49" d="M433.92,97.48c1.08,2.78,1.91,5.63,2.17,8.62-2.18,.95-4.48,.44-6.71,.45-10.05,.06-20.11,.04-30.16,.01-2.44,0-4.81,.19-7.02,1.31-3.35-1.53-5.03-6.4-3.51-10.22,1.82-1.36,3.96-1.42,6.08-1.43,11.3-.05,22.6-.03,33.9-.01,1.85,0,3.68,.12,5.26,1.26Z"/>
  <path class="cls-57" d="M376.35,77.92c1.24-1.41,2.91-.84,4.4-.84,10.9-.05,21.8-.03,32.69-.02,4.23,0,8.47,.18,12.62-.89,1.66,2.34,2.84,4.88,3.35,7.72-1.89,1.77-4.27,1.3-6.49,1.34-13.36,.22-26.73-.35-40.09,.36-4.02-.97-5.97-3.7-6.48-7.66Z"/>
  <path class="cls-91" d="M391.71,107.93c.16-1.95,1.32-2.66,3.16-2.66,12.94,.02,25.89,0,38.83,.06,.8,0,1.6,.51,2.4,.78,.52,2.26,1.19,4.5,.96,6.86-1.75,1.7-3.98,1.31-6.07,1.32-9.96,.06-19.92,.03-29.89,.02-2.43,0-4.84,.12-7.22,.59-3.53-1.44-3.43-4.02-2.17-6.96Z"/>
  <path class="cls-114" d="M2.74,112.13c-.25-2.09,.47-4.03,.88-6.02,1.13-2.17,3.23-2.13,5.2-2.14,11.38-.08,22.75-.1,34.13,0,2.47,.02,4.92,.28,5.89,3.18,.2,2.98,.65,6.05-2.74,7.78-10.01-1.32-20.08-.33-30.12-.62-2.83-.08-5.67,.06-8.5-.06-1.85-.08-3.74-.13-4.76-2.12Z"/>
  <path class="cls-2" d="M63.35,361.86c-1.07,2.18-3.1,1.65-4.88,1.65-14.94,.03-29.87,.03-44.81,.04-1.54-2.07-2.54-4.38-3.15-6.87,1.06-1.17,2.51-1.3,3.93-1.29,14.5,.01,28.99-.35,43.48,.17,3.21,.88,5.5,2.58,5.43,6.3Z"/>
  <path class="cls-37" d="M1.87,321.62c13.21,0,26.42,.02,39.63-.02,1.58,0,3.61,.64,4.02-1.92,3.24,2.64,2,6.15,1.83,9.46-1.39,1.6-3.32,1.5-5.15,1.51-11.26,.06-22.51,.07-33.77,0-2.09-.01-4.38,.21-5.63-2.15-.39-2.28-1.23-4.5-.94-6.87Z"/>
  <path class="cls-92" d="M10.33,83.85c.3-2.21,1.12-4.22,2.51-5.97,1.54-1.28,3.41-1.32,5.26-1.32,12.52-.03,25.05-.04,37.57,.01,2.25,.01,4.63-.14,6.22,2.02,.96,3.96-1.41,6-4.43,7.67-13.81-.33-27.63-.04-41.44-.22-2.05-.03-4.69,.82-5.69-2.19Z"/>
  <path class="cls-90" d="M44.41,234.4c0,2.57,0,5.13,0,7.7-1.48,1.47-3.39,1.34-5.22,1.35-10.96,.05-21.92,.05-32.89,0-1.83,0-3.74,.11-5.22-1.35,0-2.57,0-5.13,0-7.7,1.48-1.47,3.39-1.34,5.22-1.35,10.96-.05,21.93-.05,32.89,0,1.83,0,3.74-.11,5.22,1.35Z"/>
  <path class="cls-117" d="M44.44,166c0,2.57,0,5.13,0,7.7-14.45,0-28.9,0-43.35-.01,0-2.57,0-5.13,0-7.7,1.48-1.47,3.39-1.35,5.22-1.35,10.97-.05,21.94-.05,32.91,0,1.84,0,3.74-.08,5.22,1.37Z"/>
  <path class="cls-26" d="M1.08,273.73c14.44,0,28.88,0,43.32,0,0,2.57,0,5.13,0,7.7-1.47,1.47-3.39,1.34-5.22,1.35-10.96,.05-21.92,.05-32.89,0-1.83,0-3.74,.11-5.22-1.35,0-2.57,0-5.13,0-7.7Z"/>
  <path class="cls-102" d="M44.41,265.18c-14.44,0-28.88,0-43.32,0,0-2.57,0-5.13,0-7.7,14.44,0,28.88,0,43.33,0,0,2.56,0,5.13,0,7.69Z"/>
  <path class="cls-19" d="M1.08,281.43c14.44,0,28.88,0,43.32,0,0,2.57,0,5.13,0,7.7-1.47,1.47-3.39,1.34-5.22,1.35-10.96,.05-21.92,.05-32.89,0-1.83,0-3.74,.11-5.22-1.35,0-2.57,0-5.13,0-7.7Z"/>
  <path class="cls-30" d="M422.64,69.14c-1.27,1.71-3.12,1.03-4.73,1.04-13.6,.05-27.21,.06-40.81,0-2.29,0-4.5,.21-6.68,.87-3.58-.37-5.27-2.76-6.27-5.89,1.67-.98,3.5-.95,5.36-.95,14.17,.02,28.35-.02,42.52,.04,2.43,0,4.79-.16,7.11-.89,1.78,1.56,2.26,3.89,3.5,5.78Z"/>
  <path class="cls-5" d="M44.41,302.81c.02,2.56,.03,5.13,.05,7.69-1.47,1.43-3.36,1.36-5.19,1.37-10.75,.05-21.5,.05-32.25,0-1.84,0-3.71,0-5.2-1.36-.24-.56-.48-1.12-.72-1.67,0-2.01,0-4.01-.01-6.02,1.48-1.47,3.39-1.34,5.22-1.35,10.96-.05,21.92-.05,32.88,0,1.83,0,3.74-.12,5.22,1.35Z"/>
  <path class="cls-80" d="M381.33,84.79c2.32-.7,4.68-.94,7.13-.93,13.65,.06,27.3,.02,40.95,.02,1.22,2.14,2.09,4.42,2.52,6.85-1.74,1.69-3.97,1.3-6.05,1.31-10.78,.06-21.56,.03-32.35,.02-2.27,0-4.54,.02-6.77,.54-3.41-.73-5.33-3.49-5.44-7.82Z"/>
  <path class="cls-80" d="M10.33,83.85c1.23,1.44,2.91,.87,4.39,.87,12.34,.04,24.69,.05,37.03,0,2.15,0,4.23,.15,6.26,.87,.05,3.12-1.1,5.53-4.01,6.93-1.35-1.58-3.18-.9-4.8-.91-13.91-.09-27.83-.11-41.74-.14,.71-2.64,1.49-5.24,2.88-7.62Z"/>
  <path class="cls-82" d="M6.19,343.88c1.26,.81,2.66,.85,4.1,.85,12.52-.02,25.03-.02,37.55,0,1.59,0,3.12-.12,4.53-.9,3.3,1.82,4.4,4.47,3.06,8.06-1.64,1.1-3.51,1.02-5.35,1.02-11.91,.04-23.82,.03-35.74,0-1.97,0-4.01,.13-5.64-1.35-1.29-2.41-2.21-4.94-2.52-7.68Z"/>
  <path class="cls-12" d="M385.73,92.53c.48-2.61,2.57-1.76,4.09-1.76,14.04-.06,28.07-.03,42.11-.03,1.31,2.06,1.68,4.4,2,6.75-12.93,.03-25.87,.09-38.8,.07-2.29,0-4.52,.16-6.7,.88-2.31-1.32-3.55-3.13-2.69-5.9Z"/>
  <path class="cls-17" d="M61.79,79.91c-.98-2.48-3.16-1.99-5.09-1.99-14.62-.02-29.24-.03-43.86-.04,.72-2.48,1.84-4.77,3.3-6.89,1.67,1,3.51,.94,5.36,.94,13.61-.02,27.22,0,40.83-.01,1.84,0,3.7-.15,5.37,.88-.78,3.36-2.65,5.82-5.91,7.12Z"/>
  <path class="cls-59" d="M2.8,328.49c1.13,.71,2.36,.85,3.68,.84,12.51-.02,25.03-.01,37.54-.02,1.12,0,2.31,.2,3.11-.91,2.93,1.57,2.95,3.94,1.82,6.63-1.09,1.64-2.79,1.1-4.27,1.11-9.63,.04-19.26,.02-28.89,.02-3.81,0-7.63-.2-11.35,.85-1.22-2.71-1.36-5.63-1.64-8.53Z"/>
  <path class="cls-111" d="M2.74,112.13c1.53,1.01,3.25,.84,4.96,.84,11.51,0,23.03-.03,34.54,.03,1.54,0,3.62-.8,4.08,1.81,1.51,2.28,1.4,4.27-1.07,5.82-3.77,1.02-7.61,.5-11.42,.53-8.65,.08-17.3,.05-25.95,0-2.11,0-4.3,.2-6.07-1.36-.3-2.64,.16-5.18,.94-7.68Z"/>
  <path class="cls-18" d="M44.41,234.4c-14.44,0-28.89,0-43.33,0,0-2.28,0-4.56,0-6.84,1.48-1.47,3.39-1.34,5.22-1.35,10.96-.05,21.93-.05,32.89,0,1.83,0,3.74-.11,5.22,1.35,0,2.28,0,4.56,0,6.84Z"/>
  <path class="cls-28" d="M44.45,152.32c0,2.28,0,4.56,0,6.84-1.49,1.43-3.4,1.33-5.23,1.34-10.97,.05-21.94,.05-32.91,0-1.83,0-3.75,.11-5.22-1.35,0-2.28,0-4.56,0-6.84,1.48-1.47,3.39-1.35,5.22-1.35,10.97-.05,21.95-.05,32.92,0,1.84,0,3.74-.07,5.23,1.37Z"/>
  <path class="cls-109" d="M44.72,140.36c-.09,1.99-.18,3.98-.26,5.98-1.49,1.43-3.4,1.33-5.24,1.34-10.97,.05-21.94,.05-32.91,0-1.83,0-3.75,.11-5.22-1.35,0-2.28,0-4.56,0-6.84,1.21-1.24,2.8-1.31,4.36-1.32,11.65-.07,23.31-.08,34.96,0,1.28,0,2.56,.12,3.72,.77,.54,.34,.74,.81,.6,1.43Z"/>
  <path class="cls-68" d="M44.41,139.48c-14.44,0-28.88,0-43.33,0,0-2.28,0-4.56,0-6.84,1.34-1.36,3.09-1.34,4.79-1.35,11.39-.06,22.77-.06,34.16,0,1.57,0,3.14,.07,4.52,1.01,1.56,2.42,1.78,4.83-.14,7.18Z"/>
  <path class="cls-64" d="M1.08,242.09c14.44,0,28.89,0,43.33,0,0,2.28,0,4.56,0,6.84-14.44,0-28.89,0-43.33,0,0-2.28,0-4.56,0-6.84Z"/>
  <path class="cls-94" d="M1.08,159.14c14.45,0,28.91,0,43.36,.01,0,2.28,0,4.56,0,6.84-14.45,0-28.91,0-43.36-.01,0-2.28,0-4.56,0-6.84Z"/>
  <path class="cls-67" d="M44.41,302.81c-14.44,0-28.88,0-43.32,0,0-2.28,0-4.56,0-6.84,1.48-1.47,3.39-1.34,5.22-1.35,10.96-.05,21.92-.05,32.88,0,1.83,0,3.74-.12,5.22,1.35,0,2.28,0,4.56,0,6.84Z"/>
  <path class="cls-15" d="M44.42,207.03c0,2.28,0,4.56,0,6.84-1.48,1.46-3.39,1.34-5.22,1.35-10.96,.05-21.93,.05-32.89,0-1.83,0-3.74,.11-5.22-1.35,0-2.28,0-4.56,0-6.84,1.48-1.47,3.39-1.34,5.22-1.35,10.96-.05,21.93-.05,32.89,0,1.83,0,3.74-.11,5.22,1.35Z"/>
  <path class="cls-35" d="M44.42,207.03c-14.45,0-28.89,0-43.34,0,0-2.28,0-4.56,0-6.84,1.48-1.47,3.39-1.34,5.22-1.35,10.96-.05,21.93-.05,32.89,0,1.83,0,3.74-.11,5.22,1.35,0,2.28,0,4.56,0,6.84Z"/>
  <path class="cls-93" d="M44.42,200.19c-14.45,0-28.89,0-43.34,0,0-2.28,0-4.56,0-6.84,14.45,0,28.89,0,43.34,0,0,2.28,0,4.56,0,6.84Z"/>
  <path class="cls-53" d="M1.08,213.87c14.45,0,28.89,0,43.33,0,0,2.28,0,4.56,0,6.84-1.48,1.46-3.39,1.34-5.22,1.35-10.96,.05-21.93,.05-32.89,0-1.83,0-3.74,.11-5.22-1.35,0-2.28,0-4.56,0-6.84Z"/>
  <path class="cls-86" d="M44.41,295.96c-14.44,0-28.88,0-43.32,0,0-2.28,0-4.56,0-6.84,14.44,0,28.88,0,43.32,0,0,2.28,0,4.56,0,6.83Z"/>
  <path class="cls-113" d="M1.08,220.71c14.44,0,28.89,0,43.33,0,0,2.28,0,4.56,0,6.84-14.44,0-28.89,0-43.33,0,0-2.28,0-4.56,0-6.84Z"/>
  <path class="cls-47" d="M44.4,132.64c-14.44,0-28.88,0-43.32,0,.02-.87,.03-1.74,.05-2.62,.56-5.31,.74-5.55,6.21-5.58,10.92-.05,21.85-.17,32.77,.05,5.58,.11,7.01,3.02,4.29,8.14Z"/>
  <path class="cls-76" d="M48.01,107.93c-.16-1.95-1.32-2.66-3.16-2.66-12.94,.02-25.89,0-38.83,.06-.8,0-1.6,.51-2.4,.78,.33-3.09,1.09-6.06,2.33-8.91,.17,1.92,1.49,2.1,3.03,2.1,13.17-.02,26.34,0,39.51-.05,.94,0,1.87-.53,2.8-.82,.99,3.89-.39,6.96-3.29,9.5Z"/>
  <path class="cls-95" d="M44.4,132.64c.05-1.28,.06-2.55,.16-3.83,.17-2.14-.67-3.06-2.92-3.04-12.36,.07-24.72,.17-37.08-.05-3.63-.06-2.15,3.01-3.43,4.31-.23-3.43,.12-6.83,.67-10.21,14.59,.01,29.17,.03,43.76,.04,1.58,6.89,2.7,13.76-.59,20.51,0,0-.25,0-.25,0-.1-.29-.21-.58-.31-.88,0-2.28,0-4.56-.01-6.84Z"/>
  <path class="cls-39" d="M393.4,114.8c.46-2.6,2.54-1.8,4.07-1.81,13.19-.05,26.39-.03,39.58-.03,.86,1.59,.76,3.37,.97,5.09-2.59,.9-5.27,.92-7.97,.91-10.52-.05-21.03-.04-31.55,0-1.49,0-3.19-.55-4.3,1.07-2.45-1.41-2.06-3.26-.8-5.24Z"/>
  <path class="cls-36" d="M1.08,146.32c14.46,0,28.92,0,43.38,.01,0,2,0,3.99,0,5.99-14.46,0-28.91,0-43.37-.01,0-2,0-3.99,0-5.99Z"/>
  <path class="cls-71" d="M8.71,351.55c14.08,0,28.16,.02,42.25-.03,1.61,0,3.46,.69,4.77-.98,2.93,.96,3.65,3.3,3.73,6.02-16.31,.04-32.63,.08-48.94,.12-.6-1.71-1.2-3.42-1.81-5.13Z"/>
  <path class="cls-52" d="M414.04,384.07c-1.41,2.51-3.09,4.81-5.13,6.85-1.01,.59-2.1,.79-3.26,.75-19.43-.59-38.87-.08-58.3-.29-2.2-.02-4.62,.42-6.31-1.67-.36-1.09,.02-2.07,.91-2.59,3.87-2.25,7.5-5.11,12.28-5.25,17.47-.05,34.94-.05,52.4,0,2.63,0,5.5-.42,7.41,2.19Z"/>
  <path class="cls-65" d="M414.04,384.07c-2.32-.72-4.68-.91-7.11-.9-16.31,.05-32.62,.05-48.93,0-1.61,0-3.45,.68-4.77-.95,3.46-3.67,6.58-7.89,12.47-7.57,14.07,.83,28.15,.15,42.22,.37,2.13,.03,4.27-.08,6.39,.11,1.71,.15,3.45,.34,4.27,2.23-1.11,2.51-2.49,4.84-4.54,6.72Z"/>
  <path class="cls-75" d="M426.06,363.56c-.82,2.74-2.1,5.26-3.69,7.62-.94,.33-1.9,.54-2.9,.54-14.71-.04-29.42,.05-44.13-.06-1.84-.01-3.71-.12-5-1.78-.14-3.82,2.77-7.31,6.98-8.38,5.36,1.15,10.79,.62,16.19,.67,8.83,.08,17.66-.01,26.49,.05,2.09,.01,4.33-.37,6.06,1.35Z"/>
  <path class="cls-51" d="M433.92,342.22c-.26,2.67-1.04,5.2-2.18,7.62-1.56,1.21-3.39,1.35-5.26,1.35-11.8,.02-23.59,.04-35.39-.02-1.99-.01-3.99-.1-5.72-1.32-1.57-3.79,.78-9.14,4.52-10.29,2.2,1.22,4.6,1.25,7.02,1.25,10.34,0,20.67-.03,31.01,.03,2.07,.01,4.3-.38,6,1.38Z"/>
  <path class="cls-72" d="M436.92,328.49c-.21,2.62-.35,5.26-1.49,7.7-1.28,1.09-2.82,1.3-4.41,1.31-11.82,.06-23.65,.09-35.47-.02-1.72-.02-3.43-.23-4.73-1.59-1.53-3.19-.98-5.93,1.8-8.17,3.04-.97,6.18-.54,9.28-.56,9.35-.05,18.69-.05,28.04,0,2.39,.01,4.85-.13,6.98,1.34Z"/>
  <path class="cls-2" d="M426.06,363.56c-14.62,0-29.23-.02-43.85-.03-2.13,0-4.3,.2-5.86-1.73,.84-4.45,2.67-6.46,6.32-6.95,7.94,1.04,15.9,.31,23.85,.47,5.83,.12,11.65-.02,17.48,.05,1.82,.02,3.74-.19,5.21,1.31-.61,2.49-1.61,4.81-3.15,6.87Z"/>
  <path class="cls-50" d="M370.36,368.62c1.01,2.22,3.04,1.73,4.82,1.73,14.07,.02,28.15,0,42.22,.01,1.7,0,3.43-.21,4.96,.81-1.26,2.06-2.53,4.11-3.79,6.17-1.8-1.1-3.8-1.01-5.8-1-14.67,.01-29.35,.03-44.02-.03-1.64,0-3.93,.97-4.45-1.89,.91-3.09,2.69-5.27,6.05-5.8Z"/>
  <path class="cls-71" d="M429.21,356.68c-14.59,0-29.17,.02-43.76-.02-1.55,0-3.6,.73-4.03-1.86-.44-2.89,.72-4.82,3.45-5.82,2.19,.64,4.41,.91,6.71,.9,13.39-.06,26.77-.03,40.16-.04-.84,2.28-1.69,4.56-2.53,6.84Z"/>
  <path class="cls-43" d="M341.3,388.42c.64,2.55,2.74,1.57,4.23,1.57,16.9,.07,33.81,.05,50.71,.04,4.25,0,8.5-.16,12.67,.88-.73,1.45-1.88,2.53-3.13,3.51-23.07-.04-46.13-.08-69.2-.1-2.84,0-5.63-.17-8.12-1.75,2.04-2.51,9.4-4.89,12.84-4.15Z"/>
  <path class="cls-85" d="M390.65,335.24c1.67,.95,3.5,.94,5.35,.94,13.14-.01,26.29,0,39.43,.01-.03,2.13-.65,4.11-1.51,6.03-13.31-.02-26.63-.04-39.94-.08-2.06,0-4.49,.55-4.84-2.65-1.17-2.01-.68-3.43,1.5-4.25Z"/>
  <path class="cls-37" d="M436.92,328.49c-14.78-.01-29.56-.02-44.35-.03-1.31-3.27-1.18-6.27,1.63-8.78,.32,3.09,2.61,2.8,4.76,2.8,13.02,0,26.04,.02,39.06,.03-.37,1.99-.74,3.98-1.11,5.97Z"/>
  <path class="cls-116" d="M394.2,319.68c-.54,2.93-1.09,5.85-1.63,8.78-1.15,2.11-1.44,4.48-1.92,6.78-.85,1.3-1.44,2.68-1.5,4.25-1.4,3.18-3.44,6.06-4.28,9.49-1.41,1.79-2.66,3.67-3.45,5.82-1.69,2.33-3.38,4.67-5.06,7-2,2.27-3.99,4.55-5.99,6.82-2.02,1.93-4.04,3.86-6.05,5.8-3.69,2.6-7.39,5.19-11.08,7.79-3.98,2.07-7.95,4.14-11.93,6.21-4.28,1.38-8.56,2.77-12.84,4.15-4,.63-8,1.26-12,1.89-1.25,.46-2.54,.26-3.81,.26-61.85,.01-123.71,.01-185.56,0-1.27,0-2.57,.2-3.81-.26-7.71-.47-14.93-3.05-22.27-5.14-3.53-1.65-7.06-3.32-10.6-4.94-.99-.45-1.79-1.48-3.08-1.15-2.87-2.61-6.06-4.77-9.41-6.7-2.57-2.31-5.14-4.63-7.71-6.94-2.28-2.58-4.56-5.15-6.83-7.73-1.3-1.77-2.6-3.53-3.9-5.3-1.47-1.86-1.85-4.41-3.73-6.02-1.25-2.17-1.61-4.79-3.35-6.72-1.14-2.93-2.28-5.86-3.42-8.79-.33-2.28-.72-4.56-1.82-6.63-1.7-2.69,.1-6.03-1.62-8.72-1.01-57.64-.14-115.28-.45-172.92-.01-2.13-.06-4.27-.09-6.4,.2-6.84,.4-13.67,.59-20.51,.93-1.58,.74-3.33,.75-5.05,.94-2.2,1.57-4.47,1.69-6.87,1.1-3.17,2.19-6.33,3.29-9.5,.9-1.97,1.8-3.93,2.69-5.9,1.34-2.31,2.67-4.62,4.01-6.93,1.26-1.9,2.52-3.79,3.79-5.69,1.97-2.37,3.94-4.74,5.91-7.12,2.32-2.27,4.64-4.53,6.95-6.8,2.84-2.18,5.67-4.36,8.51-6.54,4.24-2.36,8.49-4.72,12.73-7.08,8.84-3.4,17.9-5.98,27.33-7.11,53.33-.07,106.66-.15,160-.2,11.09,0,22.18,.13,33.27,.2,8.71,1.14,17.15,3.39,25.45,6.23,4.33,2.3,8.66,4.6,12.99,6.91,3.08,2.26,6.15,4.51,9.23,6.77,2.09,1.96,4.18,3.93,6.27,5.89,1.98,2.29,3.95,4.58,5.93,6.87,1.66,2.29,3.32,4.58,4.98,6.87,1.47,2.58,2.93,5.16,4.4,7.73,.9,1.97,1.8,3.93,2.69,5.9,1.1,3.17,2.19,6.33,3.29,9.5,.13,2.4,.76,4.67,1.7,6.87,0,1.79-.16,3.6,.8,5.24,.18,6.77,.36,13.54,.54,20.31-.03,46.4-.04,92.8-.12,139.2-.02,13.37-.28,26.75-.42,40.12Z"/>
  <path class="cls-3" d="M123.27,394.46c48.58,.05,97.17,.13,145.75,.15,15.81,0,31.62-.1,47.44-.15-1.35,1.2-3,.69-4.51,.69-61.39,.03-122.78,.03-184.18,0-1.51,0-3.16,.51-4.51-.69Z"/>
  <path class="cls-6" d="M1.81,310.5c14.21,0,28.43,0,42.64,0,.91,4.15-.77,5.34-4.92,5.23-10.9-.27-21.81-.28-32.71,0-4.15,.11-5.75-1.17-5.01-5.23Z"/>
  <path class="cls-86" d="M309.62,288.27c-1.66,3.06-3.96,5.57-6.58,7.82-2.38,.63-4.8,.43-7.22,.43-51.35,0-102.71-.05-154.06,.04-1.72,0-3.41-.09-5.08-.47-2.3-2.01-4.48-4.12-5.87-6.9,1.46-2.68,4.1-2.22,6.42-2.23,19.72-.06,39.45-.08,59.17,0,1.71,0,3.41,.21,4.96-.73,2.15-.8,4.2,.03,6.27,.44,9.35,1.86,18.62,1.56,27.85-.78,1.91-.48,3.82-1.2,5.85-.54,1.54,1,3.27,.74,4.97,.74,18.33,0,36.65-.03,54.98,.02,2.93,0,6.05-.4,8.36,2.16Z"/>
  <path class="cls-44" d="M136.68,296.08c1.67-1.03,3.51-.97,5.38-.97,51.87,.01,103.74,.01,155.6,0,1.86,0,3.71-.06,5.38,.98-1.83,2.71-4.08,5.01-6.81,6.82-2.23,1.09-4.6,1.32-7.05,1.32-46.21-.02-92.42-.02-138.64,0-2.45,0-4.82-.23-7.05-1.32-2.73-1.81-4.98-4.11-6.81-6.83Z"/>
  <path class="cls-38" d="M129.41,152.31c1.75-2.93,3.77-5.62,6.45-7.78,1.19-.56,2.45-.62,3.75-.61,51.65,.33,103.3,.05,154.94,.18,3.09,0,6.25-.83,9.3,.43,2.39,1.92,4.31,4.23,5.77,6.92-1.92,2.62-4.79,2.16-7.43,2.17-18.64,.08-37.28,0-55.91,.05-1.55,0-3.15-.28-4.54,.7-4.53,.93-8.64-1.26-12.96-1.88-8.47-1.22-16.72-.53-24.95,1.46-2.2,.53-4.39,1.28-6.72,.74-3.02-.99-6.14-1.03-9.27-1.03-17.32,0-34.64,.02-51.95-.02-2.22,0-4.59,.44-6.48-1.33Z"/>
  <path class="cls-68" d="M290.31,131.66c3.06,1.72,5.34,4.33,7.75,6.79-1.71,2.53-4.41,2.34-6.93,2.37-8.25,.11-16.5,.04-24.75,.04-38.7,0-77.39,.02-116.09-.03-3.03,0-6.38,.64-8.63-2.38,2.41-2.46,4.69-5.08,7.75-6.79,2.34-1,4.79-.42,7.19-.43,43.17-.06,86.35,.17,129.52-.13,1.44-.01,2.85,.02,4.2,.56Z"/>
  <path class="cls-5" d="M143.49,302.91c50.91,0,101.82,0,152.74,0-2.68,3.12-5.79,5.72-9.38,7.74-2.38,.58-4.81,.4-7.22,.4-40.56,0-81.12-.05-121.68,.04-1.72,0-3.41-.1-5.09-.44-3.59-2.02-6.69-4.63-9.37-7.74Z"/>
  <path class="cls-109" d="M141.66,138.46c2.45,.83,4.95,1.05,7.54,1.05,47.11-.04,94.22-.04,141.33,0,2.59,0,5.09-.22,7.54-1.05,2.46,1.52,4.12,3.8,5.79,6.08-2.32,.73-4.68,.96-7.13,.96-51.24-.04-102.49-.04-153.73,0-2.45,0-4.81-.23-7.13-.96,1.67-2.27,3.33-4.56,5.79-6.08Z"/>
  <path class="cls-47" d="M290.31,131.66c-2.45,.79-4.96,1-7.54,1-41.94-.04-83.88-.04-125.83,0-2.58,0-5.09-.21-7.54-1,2.94-2.59,5.88-5.19,9.53-6.81,2.49-.91,5.06-.45,7.6-.45,36.4-.04,72.81,.08,109.21-.06,1.69,0,3.42-.2,5.05,.51,3.64,1.61,6.58,4.21,9.53,6.8Z"/>
  <path class="cls-22" d="M280.79,124.86c-2.32,.72-4.68,.97-7.13,.96-35.87-.04-71.74-.04-107.6,0-2.45,0-4.81-.24-7.13-.96,4.26-3.22,8.87-5.81,13.92-7.6,31.34,.56,62.68,.56,94.02,0,5.05,1.79,9.65,4.38,13.92,7.6Z"/>
  <path class="cls-6" d="M152.87,310.64c1.66-1.01,3.5-1,5.36-1,41.09,.01,82.18,.01,123.27,0,1.86,0,3.7-.01,5.36,1.01-2.52,2.57-5.52,4.41-8.78,5.87-1.33,.61-2.74,.67-4.17,.66-36.03-.26-72.06-.26-108.09,0-1.43,.01-2.84-.05-4.17-.66-3.26-1.46-6.26-3.31-8.78-5.87Z"/>
  <path class="cls-115" d="M161.65,316.52c4.18-1.05,8.44-.89,12.7-.89,30.34,.01,60.68,.01,91.02,0,4.26,0,8.52-.16,12.7,.89-4.66,3.52-9.94,5.85-15.38,7.84-20.88-1.13-41.77-.28-62.66-.5-7.67-.08-15.35-.31-23,.5-5.45-1.99-10.72-4.32-15.39-7.84Z"/>
  <path class="cls-25" d="M177.03,324.36c1.76-1.77,4.02-1.88,6.31-1.88,24.35,0,48.69,0,73.04,0,2.29,0,4.54,.11,6.31,1.88-28.55,11.67-57.11,11.67-85.66,0Z"/>
  <path class="cls-10" d="M309.62,288.27c-5.6-1.36-11.31-.81-16.97-.83-16.24-.06-32.47,0-48.71-.1-.83,0-3.26,1.55-2.7-1.49,.56-1.29,1.76-1.81,2.92-2.26,4.36-1.68,8.41-3.95,12.4-6.34,1.44-.86,2.92-1.81,4.75-.98,16.05,.9,32.11,.14,48.16,.42,2.35,.04,4.88-.54,6.91,1.32-1.37,4.01-4.03,7.15-6.77,10.26Z"/>
  <path class="cls-39" d="M266.87,117.25c-2.24,1.43-4.68,1.74-7.32,1.74-26.46-.06-52.92-.06-79.38,0-2.64,0-5.08-.31-7.32-1.74,5.28-2.92,10.85-5.05,16.81-6.13,20.14-.6,40.28-.61,60.42,0,5.95,1.08,11.52,3.21,16.8,6.13Z"/>
  <path class="cls-104" d="M316.39,278.01c-17.19,0-34.37,0-51.56,0-1.79,0-3.81,.47-4.8-1.76,3.42-4.16,6.52-8.74,12.56-9.44,11.06,1.01,22.13,.23,33.19,.45,3.69,.07,7.38-.04,11.07,.04,1.68,.04,3.45-.07,4.78,1.31-1.09,3.5-2.8,6.66-5.24,9.4Z"/>
  <path class="cls-73" d="M112.85,183.91c1-3.88,2.19-7.69,4.41-11.08,.84-.66,1.83-.69,2.83-.67,13.62,.37,27.24,.03,40.86,.19,2.2,.03,4.63-.42,6.27,1.75-.76,5.27-3.62,9.03-8.29,11.5-13.2-.67-26.41-.12-39.61-.33-2.22-.04-4.6,.44-6.47-1.36Z"/>
  <path class="cls-41" d="M129.41,152.31c20.45,0,40.89,0,61.34-.02,2.44,0,4.8,.15,6.87,1.62-2.23,3.69-6.71,3.61-9.84,5.82-1.69,1.19-3.58,2.27-5.86,1.62-16.6,0-33.2,.05-49.79-.02-2.63-.01-5.49,.38-7.39-2.24,.98-2.66,2.82-4.72,4.67-6.78Z"/>
  <path class="cls-104" d="M121.58,275.43c-2.32-3.11-3.81-6.64-5.15-10.25,2.31-1.39,4.9-1.27,7.42-1.28,14-.05,27.99-.07,41.98,0,4.79,2.04,8.43,5.17,9.79,10.43-1.35,1.67-3.28,1.55-5.1,1.57-15.5,.17-31.01-.16-46.51,.19-.87,.02-1.69-.16-2.43-.67Z"/>
  <path class="cls-83" d="M112.85,183.91c13.34,.01,26.69,.05,40.03,0,2.43,0,4.8,.14,7.12,.88,.05,4.17-2.03,7.26-5.02,9.9-1.44,.72-3,.83-4.56,.84-11.75,.07-23.5,.1-35.25-.04-1.86-.02-4.43,.66-4.93-2.44,.41-3.18,.96-6.31,2.6-9.14Z"/>
  <path class="cls-19" d="M201.9,286.76c-.76,2.46-2.82,1.47-4.32,1.47-20.32,.06-40.65,.04-60.97,.04-1.98,0-4-.22-5.8,.91-2-2.06-3.8-4.27-5.05-6.88,1.9-2.61,4.77-2.17,7.4-2.19,17.15-.09,34.3,.02,51.44-.07,2.39-.62,4.4,.48,6.39,1.52,3.58,1.87,7.7,2.58,10.92,5.2Z"/>
  <path class="cls-13" d="M110.25,193.05c.81,1.36,2.16,1.14,3.42,1.15,12.78,0,25.56,0,38.34,.02,1.32,0,2.53-.22,3.67-.87,.53,4.68-.33,8.88-4.24,12.01-7.21,1.02-14.46,.33-21.69,.45-5.82,.1-11.64,.16-17.46-.07-3.13-.12-4.93-1.36-3.66-4.85-.11-2.75,.4-5.37,1.61-7.84Z"/>
  <path class="cls-28" d="M241.24,153.87c.69-2.5,2.77-1.52,4.26-1.52,19.14-.06,38.29-.06,57.43-.01,2.29,0,4.5-.23,6.69-.88,2.11,2.31,4.17,4.66,5.35,7.63-1.85,1.84-4.24,1.38-6.46,1.39-16.21,.08-32.42-.04-48.63,.08-.99,0-1.99-.18-2.94,.24-.94,.51-1.93,.52-2.85,.03-3.78-1.97-7.64-3.75-11.6-5.33-.67-.27-1.1-.87-1.24-1.63Z"/>
  <path class="cls-105" d="M331,200.19c.93,2.1,1,4.32,.97,6.56,.42,4.2,.05,4.9-3.96,4.97-11.75,.23-23.51,.16-35.26,.03-1.57-.02-3.11-.26-4.38-1.34-1.96-3.08-3.49-6.24-1.82-9.99,1.43-1.45,3.3-1.55,5.15-1.56,11.5-.08,23-.06,34.5-.01,1.71,0,3.43,.07,4.8,1.34Z"/>
  <path class="cls-56" d="M166.83,264.65c-1.44,.9-3.05,.51-4.58,.51-12.93,.03-25.87,.11-38.8-.07-2.35-.03-4.69,1.46-7.03,.08-1.7-2.62-2.53-5.58-3.34-8.55,1.75-1.69,3.98-1.29,6.06-1.3,11.65-.06,23.31,0,34.96-.05,1.56,0,3.12-.18,4.66-.42,1.18-.47,2.31-.3,2.93,.81,1.67,3.02,4.27,5.51,5.14,8.99Z"/>
  <path class="cls-66" d="M108.64,200.9c-.4,3.2,1.36,3.64,4.08,3.62,13.16-.11,26.33-.05,39.5-.05,1.4,3.8,1.21,7.28-2.05,10.14-2.47,.9-5.05,.62-7.6,.62-9.8,.03-19.6,.04-29.4,0-2.1-.01-4.31,.29-6.06-1.35-.35-4.43,.36-8.73,1.54-12.98Z"/>
  <path class="cls-62" d="M288.4,209.6c1.25,.85,2.66,.87,4.1,.87,11.82-.02,23.64-.09,35.45,.05,2.88,.03,4.34-.73,4.02-3.76,1.3,4.31,.75,8.73,.8,13.11-1.25,1.11-2.79,1.33-4.37,1.34-11.77,.07-23.53,.08-35.3,0-1.28,0-2.55-.15-3.7-.81-2-3.44-2.81-6.99-1.01-10.78Z"/>
  <path class="cls-117" d="M166.8,175.18c-.74-2.47-2.81-1.44-4.29-1.45-12.72-.08-25.45-.08-38.17-.02-2.42,.01-4.78-.15-7.09-.88,.76-2.46,1.81-4.78,3.36-6.86,1.52-1.3,3.38-1.33,5.22-1.33,14.29-.03,28.57-.04,42.86,0,1.7,0,3.41,.03,4.95,.9,.68,.51,1.5,1.24,1.02,2.02-1.97,3.17-3.83,6.53-7.86,7.61Z"/>
  <path class="cls-69" d="M185.65,280.62c-1.29,1.33-2.96,.78-4.46,.78-16.1,.04-32.2,.05-48.29,0-2.44,0-4.81,.16-7.14,.89-1.75-2.07-3.1-4.39-4.18-6.87,2.19-.66,4.42-.87,6.72-.86,14.25,.05,28.5,.06,42.75-.02,1.5,0,3.57,1,4.34-1.46,4.74,.72,7.53,4.09,10.27,7.54Z"/>
  <path class="cls-94" d="M255.78,160.61c.8-2.42,2.84-1.42,4.34-1.42,18.28-.09,36.57-.08,54.85-.1,1.72,2.1,3.16,4.36,4.14,6.89-2.42,1.54-5.16,1.3-7.83,1.32-14.99,.08-29.99-.06-44.97,.09-4.95,0-7.88-3.16-10.53-6.77Z"/>
  <path class="cls-1" d="M159.99,255.12c-1.2,2-3.18,1.5-4.96,1.5-13.98,.02-27.97,.01-41.95,0-1.47-2.66-2.11-5.56-2.56-8.53,2.59-1.51,5.46-1.3,8.27-1.31,12.02-.07,24.05,.04,36.07-.08,4.33,1.2,4.83,4.74,5.12,8.41Z"/>
  <path class="cls-89" d="M321.63,268.61c-15.15,0-30.31,0-45.46-.01-1.91,0-4.1,.54-5.09-1.96,.6-3.77,2.44-6.4,6.47-7.03,13.58-.07,27.16-.04,40.74,0,2.39,0,4.89-.15,6.54,2.16-.68,2.46-1.66,4.79-3.2,6.84Z"/>
  <path class="cls-114" d="M359.97,104.42c.41,3.22,.7,6.42-.68,9.51-2.51-1.2-5.18-1.35-7.91-1.35-13.25,.04-26.49,0-39.74,.04-1.57,0-3.13,.05-4.67-.31-.83-1.72-.76-3.54-.58-5.36,.22-3.85,3.04-3.86,5.8-3.88,12.06-.06,24.13-.01,36.19-.02,2.27,0,4.54-.04,6.81,.03,1.69,.05,3.44,0,4.78,1.34Z"/>
  <path class="cls-88" d="M325.02,178.81c.97,1.52,1.63,3.15,1.8,4.96,.83,1.8-.39,2.59-1.68,3.3-.75,.41-1.6,.62-2.45,.63-13.72,.12-27.43,.59-41.14-.24-4.2-2.47-5.71-5.27-4.67-8.67,2-1.42,4.31-1.32,6.58-1.32,11.81-.04,23.62-.02,35.42-.02,2.15,0,4.28,.04,6.14,1.36Z"/>
  <path class="cls-22" d="M313.79,125.85c-2.44-2.05-4.08-4.62-5.06-7.64,.3-2.47,2.36-2.19,3.89-2.21,13.75-.15,27.5-.21,41.26,0,1.57,.02,3.11,.31,4.44,1.25-1.05,3.66-3.07,6.67-5.98,9.12-12.04-.03-24.09-.44-36.13,.17-.86,.04-1.66-.3-2.43-.69Z"/>
  <path class="cls-49" d="M359.97,104.42c-16.32,0-32.64,.05-48.96-.06-2.23-.01-3.8,.43-4.63,2.58-.12-3.64,.62-7.08,2.38-10.28,2.22-.74,4.51-.44,6.77-.44,12.08-.02,24.17-.03,36.25,.01,2.24,0,4.6-.35,6.51,1.35,1,2.17,1.93,4.36,1.68,6.84Z"/>
  <path class="cls-94" d="M174.91,167.01c-1.79-1.09-3.77-1.04-5.77-1.04-16.18,.01-32.35,0-48.53,0,.98-2.53,2.42-4.79,4.13-6.88,2.45,.79,4.96,.95,7.53,.94,15.45-.05,30.9-.04,46.35,0,1.5,0,3.15-.52,4.46,.73-2.01,3.02-4.1,5.93-8.17,6.26Z"/>
  <path class="cls-55" d="M325.02,178.81c-13.99,0-27.99,.03-41.98-.03-2.28,0-4.49,.2-6.66,.87-4.02-1.68-5.71-4.47-4.88-8.06,1.52-.97,3.25-.95,4.94-.96,13.32-.04,26.64-.04,39.96,0,2.25,0,4.62-.14,6.07,2.19,1.58,1.68,1.85,3.92,2.55,5.98Z"/>
  <path class="cls-90" d="M331.76,235.25c-.3,2.01-.6,4.01-.89,6.02-.99,2.02-2.91,2.1-4.75,2.11-11.47,.1-22.94,.14-34.41-.02-2.45-.04-4.86-.44-5.97-3.17-.27-2.98-.67-6.02,2.67-7.76,10.77,1.36,21.6,.32,32.39,.63,2.13,.06,4.27-.06,6.4,.15,1.74,.17,3.36,.64,4.55,2.03Z"/>
  <path class="cls-78" d="M289.23,219.86c14.51,0,29.03,0,43.54,0-.06,2.56-.13,5.13-.19,7.69-1.07,1.15-2.51,1.3-3.93,1.31-11.95,.1-23.89,.14-35.84-.02-1.57-.02-3.15-.25-4.19-1.69-.97-2.53-1.34-5.01,.61-7.29Z"/>
  <path class="cls-113" d="M107.14,227.58c-.06-2.29-.12-4.58-.17-6.87,1.38-1.25,3.1-1.35,4.82-1.35,11.4-.05,22.8-.05,34.2,0,1.57,0,3.15,.06,4.53,.97,1.7,1.98,1.46,4.27,1.04,6.59-.71,2.41-2.73,2.74-4.74,2.77-11.78,.16-23.57,.15-35.35,0-1.72-.02-3.45-.27-4.33-2.12Z"/>
  <path class="cls-42" d="M322.47,172.83c-1.27-.75-2.65-.87-4.1-.87-14.48,.02-28.96,0-43.44,.03-1.36,0-2.9-.42-3.86,1.1-3.08-.84-4.93-2.96-6.04-5.84,.53-1.04,1.46-1.25,2.51-1.25,17.19,0,34.38-.01,51.57-.02,1.55,2.07,2.59,4.4,3.35,6.85Z"/>
  <path class="cls-12" d="M358.3,97.57c-15.05,0-30.09,.02-45.14-.02-1.49,0-3.17,.57-4.39-.89,.86-2.62,2.21-4.93,4.24-6.81,4.61-1.05,9.28-.36,13.92-.44,6.91-.13,13.83-.02,20.74-.04,2.28,0,4.52,.11,6.54,1.34,2.15,1.82,3.26,4.26,4.09,6.87Z"/>
  <path class="cls-83" d="M280.71,186.51c13.56,0,27.13,.02,40.69-.01,2.21,0,4.7,.36,5.42-2.72,1.6,2.69,2.14,5.68,2.51,8.72-1.04,1.6-2.7,2.06-4.42,2.07-13.27,.06-26.54,.54-39.8-.23-3.14-1.66-4.87-4.13-4.41-7.83Z"/>
  <path class="cls-1" d="M329.2,248.08c-.27,2.08-.62,4.13-1.65,6-1.2,2.05-3.23,2.14-5.23,2.15-12.22,.07-24.44,.07-36.66,0-1.71-.01-3.43-.12-4.83-1.32-1.23-3.85-.08-6.35,3.76-8.18,13,0,26-.02,39,.02,1.95,0,4-.2,5.61,1.33Z"/>
  <path class="cls-93" d="M284.04,193.35c12.73,0,25.46-.03,38.2,.03,2.42,.01,4.78-.16,7.09-.88,1.13,2.44,1.81,4.98,1.67,7.7-13.15,0-26.29,0-39.44,0-1.69,0-3.41-.15-4.92,.86-2.64-1.97-3.57-4.51-2.6-7.7Z"/>
  <path class="cls-97" d="M358.32,117.25c-14.92,0-29.85-.03-44.77,.02-1.62,0-3.46-.67-4.81,.94-1.18-1.79-1.74-3.77-1.77-5.9,.74-1.14,1.92-1.05,3.05-1.05,15.34,0,30.68,.02,46.02-.03,1.96,0,3.42,.27,3.26,2.69,.09,1.23-.3,2.32-.97,3.33Z"/>
  <path class="cls-90" d="M108.86,241.27c-.3-2-.6-4.01-.89-6.01,1.76-1.63,3.97-1.3,6.05-1.31,10.05-.05,20.11-.03,30.16-.01,2.43,0,4.81-.13,7.02-1.28,3.73,1.4,2.86,4.58,2.87,7.43-.8,2.72-3,3.26-5.38,3.29-11.83,.14-23.66,.14-35.48,0-1.72-.02-3.46-.24-4.35-2.1Z"/>
  <path class="cls-18" d="M289.02,226.47c1.27,1.73,3.13,1.05,4.74,1.06,12.94,.05,25.88,.03,38.83,.03,.36,2.63-.19,5.17-.83,7.7-13.01-1.85-26.1-.37-39.14-.88-1.66-.07-3.92,.9-4.45-1.92-1.22-2.21-1.89-4.34,.86-5.98Z"/>
  <path class="cls-81" d="M354.2,90.7c-12.22,.01-24.45,.01-36.67,.04-1.59,0-3.12-.06-4.53-.9,10.95-12.92,31.47-12.49,41.2,.86Z"/>
  <path class="cls-18" d="M151.56,232.45c.11,3.04-1.99,2.82-4.04,2.82-13.18-.02-26.37-.01-39.55-.01-.63-2.52-1.18-5.05-.83-7.67,1.25,.84,2.67,.84,4.1,.84,11.81-.02,23.62,0,35.43-.03,1.58,0,3.61,.65,4.03-1.92,2.74,1.64,2.08,3.77,.86,5.98Z"/>
  <path class="cls-53" d="M150.5,220.72c-14.51,0-29.02,0-43.53,0,.05-2.28,.09-4.56,.14-6.84,14.52,0,29.05,0,43.57,0,1.54,2.32,1.65,4.6-.18,6.84Z"/>
  <path class="cls-98" d="M280.27,253.96c1.29,.61,2.61,.98,4.08,.98,13.18-.03,26.35-.03,39.53,0,1.31,0,2.53-.21,3.67-.86-.91,2.56-1.81,5.12-2.72,7.68-2.03-.71-4.1-.89-6.25-.88-12.62,.05-25.24,.04-37.85,0-1.49,0-3.15,.56-4.42-.81,.2-2.77,1.07-5.09,3.97-6.11Z"/>
  <path class="cls-40" d="M108.86,241.27c1.25,.84,2.66,.84,4.1,.84,11.94-.02,23.89-.01,35.83,0,2.03,0,4.15,.18,4.42-2.69,2.95,1.77,3.45,4.41,2.67,7.51-1.21,1.8-3.08,1.14-4.69,1.14-11.21,.05-22.43,.13-33.64-.06-2.35-.04-4.68,1.39-7.02,.11-.8-2.22-1.59-4.44-1.67-6.84Z"/>
  <path class="cls-40" d="M329.2,248.08c-13.56,0-27.13,.02-40.69-.03-1.6,0-3.46,.65-4.66-1.14-.78-3.09-.28-5.74,2.67-7.51,.34,2.17,2.02,2.64,3.76,2.65,12.74,.05,25.47,.04,38.21-.01,.8,0,1.59-.5,2.38-.77-.07,2.39-.86,4.6-1.66,6.81Z"/>
  <path class="cls-23" d="M313.79,125.85c11.66-1.91,23.4-.47,35.09-.88,1.32-.05,2.45,.6,3.46,1.4-10.63,11.1-28.31,10.86-38.55-.52Z"/>
  <path class="cls-20" d="M250.07,111.13c-1.66,1.01-3.48,1-5.34,1-16.58-.02-33.16-.02-49.74,0-1.86,0-3.69,.02-5.34-1,20.14-5.98,40.28-5.98,60.42,0Z"/>
  <path class="cls-116" d="M286.51,239.4c-.89,2.5-1.78,5-2.67,7.51-1.19,2.35-2.38,4.7-3.57,7.05-1.32,2.04-2.65,4.07-3.97,6.11-1.74,2.19-3.49,4.38-5.23,6.57-3.68,3.2-7.36,6.4-11.04,9.6-5.82,4.07-12.2,7.06-18.79,9.61-13.03,3.73-26.14,4.31-39.34,.91-4.38-.53-8.01-3.03-12-4.56-1.41-.54-2.56-1.79-4.24-1.57-3.42-2.51-6.85-5.02-10.27-7.54-2.85-2.81-5.7-5.62-8.55-8.43-3.13-2.57-4.09-6.69-6.84-9.53-1.37-2.74-2.74-5.47-4.12-8.21-.89-2.5-1.78-5-2.67-7.51-.09-2.43-.79-4.71-1.65-6.96-.04-2.03,.06-4.08-.86-5.98-.07-1.92-.14-3.84-.21-5.75,.06-2.28,.12-4.56,.18-6.84,.51-3.14,1.03-6.27,1.54-9.41,1.16-3.71,2.31-7.41,3.47-11.12,1.44-2.85,2.88-5.7,4.31-8.55,2.27-3.21,4.54-6.41,6.81-9.62,2.7-2.72,5.41-5.44,8.11-8.16,2.72-2.09,5.45-4.17,8.17-6.26,4.85-2.28,9.69-4.56,14.54-6.84,4.01-.81,8.01-1.71,12.04-2.42,10.72-1.89,21.2-.39,31.58,2.38,4.91,2.11,9.91,4.04,14.54,6.74,3.08,2.21,6.17,4.42,9.25,6.63,2.01,1.95,4.03,3.89,6.04,5.84,1.77,2.19,3.53,4.38,5.3,6.57,1.45,2.28,2.89,4.57,4.34,6.85,1.11,2.28,2.22,4.56,3.33,6.84,.87,2.57,1.73,5.13,2.6,7.7,.59,2.85,1.17,5.7,1.76,8.55,.28,3.42,.56,6.84,.83,10.26-.07,2.2-.14,4.41-.21,6.61-.91,1.9-.81,3.95-.86,5.98-.85,2.25-1.56,4.53-1.65,6.95Z"/>
</svg>