<svg xmlns="http://www.w3.org/2000/svg" viewBox="0 0 384 384"><path d="M0,165c0-7,0-14,0-21,.97-6.38,1.79-12.78,2.94-19.13C13.7,65.65,62.2,15.91,121.15,3.76c7.79-1.61,15.73-2.52,23.6-3.76,6.75,0,13.5,0,20.25,0,.95,.23,1.9,.51,2.86,.67,8.48,1.46,17.11,2.3,25.41,4.43,96.03,24.59,144.23,133.38,97.94,221-4.24,8.02-9.41,15.55-14.61,24.06,.8,.61,2.13,1.39,3.18,2.44,31.22,31.17,62.38,62.4,93.63,93.53,4.35,4.33,8.55,8.66,10.59,14.61v7.5c-2.34,8.16-7.62,13.38-15.75,15.75h-6.75c-5.76-1.55-9.99-5.26-14.1-9.39-31.74-31.87-63.58-63.65-95.39-95.46-.86-.86-1.78-1.68-2.76-2.59-.76,.54-1.37,.95-1.97,1.38-36.63,26.69-77.21,36.21-121.87,28.16-59.69-10.77-109.33-58.93-121.68-118.25-1.57-7.55-2.51-15.23-3.74-22.86Zm38.28-10.79c-.22,63.81,51.82,116.08,115.92,116.44,63.83,.35,116.22-51.75,116.46-115.84,.25-63.93-51.79-116.22-115.87-116.42-63.87-.21-116.3,51.91-116.52,115.83Z"/></svg>