<svg xmlns="http://www.w3.org/2000/svg" viewBox="0 0 384 384"><path d="M115.96,107.92c-4.04-43.54,31.55-78.62,73.53-79.96,22.09-.7,41.19,6.97,56.71,22.79,15.4,15.7,22.3,34.86,21.74,57.17,6.55,0,12.76,0,18.96,0,18.05,.02,29.24,11.03,30.4,29.07,1.93,30.06,4.26,60.09,6.4,90.14,1.86,26.06,3.7,52.11,5.54,78.17,.53,7.48,1.3,14.96,1.44,22.45,.25,13.14-8.48,24.29-21.22,27.37-2.88,.7-5.94,.92-8.91,.92-72.38,.05-144.76,.05-217.13,.03-19.27,0-31.42-12.79-30.1-32.03,2.52-36.66,5.29-73.3,7.91-109.95,1.87-26.06,3.77-52.11,5.47-78.18,1.09-16.77,12.69-27.93,29.53-27.98,6.48-.02,12.95,0,19.73,0Zm24.08-.2h103.82c.65-20.24-6.73-36.45-23.65-47.3-18.26-11.71-37.43-11.86-55.84-.42-17.35,10.77-24.98,27.12-24.33,47.72Z"/></svg>