<?xml version="1.0" encoding="UTF-8"?>
<svg id="Layer_1" data-name="Layer 1" xmlns="http://www.w3.org/2000/svg" viewBox="0 0 512 512">
  <defs>
    <style>
      .cls-1 {
        fill: #fec4c4;
      }

      .cls-2 {
        fill: #fe5858;
      }

      .cls-3 {
        fill: #febfbf;
      }

      .cls-4 {
        fill: #fe1b1b;
      }

      .cls-5 {
        fill: #fe2a2a;
      }

      .cls-6 {
        fill: #fe7979;
      }

      .cls-7 {
        fill: #fe6262;
      }

      .cls-8 {
        fill: #fe9292;
      }

      .cls-9 {
        fill: #feaeae;
      }

      .cls-10 {
        fill: #fe0f0f;
      }

      .cls-11 {
        fill: #fe7f7f;
      }

      .cls-12 {
        fill: #feaaaa;
      }

      .cls-13 {
        fill: #fe9494;
      }

      .cls-14 {
        fill: #fe7d7d;
      }

      .cls-15 {
        fill: #fe7171;
      }

      .cls-16 {
        fill: #febaba;
      }

      .cls-17 {
        fill: #fe1010;
      }

      .cls-18 {
        fill: #fe2626;
      }

      .cls-19 {
        fill: #fea6a6;
      }

      .cls-20 {
        fill: #fe0000;
      }

      .cls-21 {
        fill: #fe6969;
      }

      .cls-22 {
        fill: #fe1212;
      }

      .cls-23 {
        fill: #fefefe;
      }
    </style>
  </defs>
  <path class="cls-20" d="M.1,239.01v-7c.94-1.16,.32-2.53,.5-3.79,0-.65,0-1.29,0-1.94,0-.64,0-1.27,0-1.91-.06-.81,.21-1.69-.5-2.36v-4c.81-5.75,.89-11.54,.97-17.32,.28-22.15,2.04-44.09,6.93-65.79,5.72-25.38,27.98-46.72,53.82-50.78,17.41-2.74,34.92-4.36,52.53-5.26,15.77-.81,31.55-1.26,47.3-2.14,13.32-.74,26.63,.02,39.9-.82,30.27-1.93,60.57-.86,90.84-.71,16.45,.08,32.93,.3,49.37,1,14.77,.63,29.57,.81,44.31,1.9,23.17,1.72,46.57,1.94,69.24,7.73,27.4,7,43.3,25.33,49.53,52.48,4.59,20.02,5.84,40.4,6.16,60.88,.09,5.6-.05,11.25,.91,16.82v4c-.7,.67-.44,1.54-.5,2.35,0,.64,0,1.27,0,1.91,0,.65,0,1.3,0,1.95,0,.66,0,1.32,0,1.98,0,1.11,0,2.21,0,3.32,.08,.85-.24,1.78,.5,2.49v7c-1.06,1.96-.25,4.07-.5,6.09,.25,2.3-.56,4.67,.5,6.91v5c-1.06,1.96-.25,4.07-.5,6.09,.25,2.3-.56,4.67,.5,6.91v6c-.79,2-.79,4,0,6v4c-.62,.67-.62,1.33,0,2v5c-.76,5.92-.9,11.88-.98,17.82-.26,21.82-2.04,43.44-6.87,64.8-5.71,25.23-26.2,45.46-51.76,50.3-15.53,2.94-31.26,4.18-47.02,5.21-24.22,1.59-48.47,2.12-72.71,3.08-37.62,1.5-75.22,.1-112.82,.85-20.98,.42-41.92-.7-62.86-1.31-25.38-.74-50.8-2-76.05-4.94-11.19-1.3-22.54-2.42-33.09-6.91-19.54-8.31-32.82-22.47-38.69-42.95-4.96-17.33-6.82-35.17-7.52-53.17-.42-10.92-.14-21.89-1.43-32.77v-4c.73-.7,.43-1.61,.5-2.45,0-.67,0-1.33,0-2,0-.91,0-1.82,0-2.73,0-1.16,0-2.32,0-3.48-.15-1.12,.38-2.34-.5-3.34v-5c1.06-1.96,.25-4.07,.5-6.09-.25-2.3,.56-4.67-.5-6.91v-6c1.06-2.27,.25-4.67,.5-6.99-.25-2.33,.56-4.73-.5-7Z"/>
  <path class="cls-23" d="M511.9,216.02c-2.12-6.16-1.45-12.61-1.91-18.93-1.48-20.42-3.12-40.81-7.93-60.8-6.59-27.39-26.98-45.94-54.92-50.26-28.37-4.39-56.97-5.75-85.58-6.87-60.93-2.39-121.87-2.79-182.82-.99-34.45,1.02-68.91,2.07-103.2,5.98-14.84,1.69-29.19,4.7-41.42,14.22-15.16,11.8-22.86,27.58-26.07,46.17-3.94,22.86-5.52,45.92-6.92,69.01-.09,1.49,.89,3.36-1.05,4.46C.1,146.75,.12,75.49,.02,4.22,.01,1.04,.32,0,3.98,0,171.99,.12,340.01,.12,508.02,0c3.65,0,3.97,1.04,3.96,4.22-.1,70.6-.08,141.2-.08,211.8Z"/>
  <path class="cls-23" d="M.1,294.99c2.12,5.81,1.51,11.94,1.9,17.92,1.38,20.78,2.84,41.55,7.61,61.88,7.03,29.99,28.22,48.31,58.77,52.2,54.82,6.99,109.95,7.4,165.07,8.17,47.65,.66,95.28-.29,142.88-2.38,24.44-1.07,48.96-1.98,73.07-6.54,29.53-5.58,47.16-23.71,53.43-52.89,5.22-24.34,6.49-49.14,8.02-73.9,.09-1.49-.89-3.36,1.06-4.45,0,70.97-.03,141.94,.1,212.92,0,3.42-.67,4.1-4.09,4.09-167.94-.11-335.87-.11-503.81,0-3.42,0-4.1-.67-4.1-4.09,.13-70.97,.1-141.94,.1-212.92Z"/>
  <path class="cls-5" d="M.1,239.01c1.89,2.1,.63,4.64,.96,6.95-.29,.68-.61,.69-.96,.04v-7Z"/>
  <path class="cls-22" d="M.1,246.01c.32,0,.64-.02,.96-.04-.19,2.36,.77,4.88-.96,7.04v-7Z"/>
  <path class="cls-10" d="M511.9,254.01c-1.73-2.14-.74-4.67-.97-7.02,.34-.62,.66-.62,.97,.02v7Z"/>
  <path class="cls-17" d="M.1,259.01c1.73,2.15,.75,4.67,.97,7.03-.34,.61-.67,.6-.97-.03v-7Z"/>
  <path class="cls-18" d="M511.9,272c-1.83-2.11-.67-4.63-.96-6.96,.29-.67,.61-.69,.96-.04v7Z"/>
  <path class="cls-4" d="M511.9,247.01c-.33,0-.65,0-.97-.02,.21-2.01-.68-4.2,.97-5.98v6Z"/>
  <path class="cls-22" d="M511.9,265c-.32,0-.64,.02-.96,.04,.13-2.04-.64-4.23,.96-6.04v6Z"/>
  <path class="cls-18" d="M.1,266c.32,0,.65,.01,.97,.03-.23,2,.74,4.2-.97,5.97v-6Z"/>
  <path class="cls-15" d="M511.9,284c-1.7-2-1.4-4,0-6v6Z"/>
  <path class="cls-14" d="M.95,227.99c.03,1.41,.71,2.96-.85,4.03v-4c.27-.55,.55-.56,.85-.03Z"/>
  <path class="cls-21" d="M511.08,231.98c-.01-1.33-.02-2.66-.04-3.99,.3-.51,.59-.53,.86,.03v4c-.3,.66-.58,.65-.82-.04Z"/>
  <path class="cls-6" d="M.92,280.04c0,1.33,0,2.66,0,3.99-.3,.51-.58,.5-.83-.04v-4c.31-.66,.59-.65,.83,.04Z"/>
  <path class="cls-7" d="M.92,280.04c-.28,0-.55-.02-.83-.04v-3c1.25,.75,.97,1.91,.83,3.04Z"/>
  <path class="cls-13" d="M.1,284c.28,.03,.56,.04,.83,.04,0,1,0,1.99,.01,2.99-.3,.53-.58,.52-.85-.03v-3Z"/>
  <path class="cls-16" d="M511.07,222c-.13-.83-.4-1.72,.83-1.98v2c-.3,.66-.57,.65-.83-.02Z"/>
  <path class="cls-3" d="M.1,222.02c1.24,.25,.97,1.14,.83,1.98-.26,.67-.54,.68-.83,.02v-2Z"/>
  <path class="cls-19" d="M511.07,222c.28-.01,.56,0,.83,.02v2c-.3,.66-.58,.65-.83-.02,0-.67,0-1.33,0-2Z"/>
  <path class="cls-12" d="M.1,224.02c.28-.03,.56-.04,.83-.02,0,.67,0,1.33,0,2-.26,.67-.54,.68-.84,.03v-2Z"/>
  <path class="cls-8" d="M511.07,223.99c.28,0,.56,0,.83,.02v2c-.3,.66-.58,.65-.84-.03,0-.67,0-1.33,0-2Z"/>
  <path class="cls-13" d="M.1,226.02c.28,0,.56-.02,.84-.03,0,.67,.01,1.33,.02,2-.29,.01-.57,.02-.86,.03v-2Z"/>
  <path class="cls-11" d="M511.06,225.99c.28,0,.56,.02,.84,.03v2c-.29,0-.57-.02-.86-.03,0-.67,.01-1.33,.02-2Z"/>
  <path class="cls-2" d="M511.08,231.98c.27,0,.55,.02,.82,.04v2c-.88-.43-.96-1.19-.82-2.04Z"/>
  <path class="cls-9" d="M.1,286.99c.28,.03,.56,.04,.85,.03,0,.66,0,1.33-.01,1.99-.29,.55-.57,.52-.83-.02v-2Z"/>
  <path class="cls-16" d="M511.9,289.99c-1.46-.67-1.38-1.33,0-2v2Z"/>
  <path class="cls-1" d="M.1,288.99c.28,.01,.56,.02,.83,.02,.14,.83,.43,1.73-.83,1.98v-2Z"/>
  <path class="cls-23" d="M205.27,179.66c44.41,25.58,88.39,50.91,132.97,76.58-44.58,25.68-88.53,50.99-132.97,76.58V179.66Z"/>
</svg>